<svg width="32" height="32" viewBox="0 0 32 32" fill="none" xmlns="http://www.w3.org/2000/svg">
<path d="M2.5815 0.0838767C1.38777 0.371371 0.375285 1.3901 0.0940405 2.56508C0.0127919 2.91508 0.000292179 4.59004 0.000292179 15.9961C0.000292179 30.3583 -0.0247074 29.4208 0.387785 30.2083C0.68778 30.7708 1.30652 31.3646 1.87526 31.6333C2.1315 31.7583 2.494 31.8895 2.67524 31.927C2.90649 31.977 6.81892 31.9958 16.0187 31.9958C30.3185 31.9958 29.3998 32.0208 30.1997 31.6146C31.0122 31.2021 31.7435 30.2396 31.931 29.3208C31.981 29.0896 31.9997 25.1772 31.9997 15.9773C31.9997 1.6401 32.0247 2.57133 31.6122 1.78385C31.3435 1.27136 30.6935 0.627617 30.1997 0.377621C29.3998 -0.0286212 30.331 -0.00362167 15.9688 0.00262822C5.65019 0.0088781 2.83774 0.0213779 2.5815 0.0838767ZM29.4373 1.5026C29.9372 1.73385 30.2185 2.00884 30.4497 2.48383L30.656 2.90258V15.9961V29.0896L30.4935 29.4333C30.2622 29.9333 29.9872 30.2146 29.5123 30.4458L29.0935 30.6521H16H2.90649L2.48775 30.4458C2.01276 30.2146 1.73776 29.9333 1.50651 29.4333L1.34402 29.0896V15.9961V2.90258L1.50651 2.55883C1.80026 1.94009 2.2315 1.5651 2.86899 1.39635C3.09399 1.33385 5.98143 1.32135 16.125 1.3276L29.0935 1.3401L29.4373 1.5026Z" fill="#151515"/>
<path d="M14.9061 4.17128C14.7686 4.27128 14.2686 4.75252 13.7936 5.22752L12.9311 6.09625L12.6998 5.8775C12.5748 5.75876 12.3123 5.59001 12.1249 5.50251L11.7811 5.34001L8.90616 5.32126C5.83747 5.30251 5.48747 5.32126 5.02498 5.59001C4.66874 5.79626 4.2875 6.23375 4.15 6.59624C4.0375 6.88374 4.03125 7.10248 4.03125 10.0274V13.1524L4.18125 13.4836C4.37499 13.9086 4.88748 14.3836 5.32498 14.5398C5.63122 14.6398 5.91247 14.6523 8.71866 14.6523H11.7811L12.1311 14.4898C12.5623 14.2836 12.9248 13.9336 13.1311 13.5211L13.2811 13.2149L13.2998 10.4337L13.3186 7.65247L14.6186 6.34C15.3373 5.62126 15.9435 4.95877 15.9685 4.88377C16.0873 4.48378 15.8185 4.07129 15.3935 4.01504C15.1998 3.99004 15.1123 4.02129 14.9061 4.17128ZM11.7624 6.87124L11.9686 7.05248L10.3124 8.71495L8.65617 10.3712L7.53119 9.25244C6.91245 8.63995 6.34371 8.10246 6.26871 8.06496C5.98121 7.91497 5.57497 8.05246 5.41247 8.35871C5.32498 8.51496 5.31873 8.48996 5.31248 7.91497C5.31248 7.24623 5.39373 6.95248 5.63122 6.78374C5.76247 6.69624 6.09996 6.68374 8.66867 6.68374H11.5624L11.7624 6.87124ZM6.89995 10.4837C8.39367 11.9899 8.51867 12.0774 8.88741 11.9649C8.96241 11.9399 9.6999 11.2524 10.5186 10.4462L11.9999 8.9712V10.9274V12.8836L11.7874 13.0961L11.5749 13.3086H8.67492C5.46247 13.3086 5.57497 13.3211 5.39998 12.8961C5.28748 12.6274 5.27498 8.6962 5.38123 8.90245C5.41872 8.9712 6.09996 9.68368 6.89995 10.4837Z" fill="#151515"/>
<path d="M17.6066 6.80868C17.3691 6.99618 17.2816 7.30867 17.4004 7.57742C17.5816 8.02116 17.3191 8.00241 22.744 7.98366L27.6127 7.96491L27.7752 7.81491C28.0939 7.51492 28.0252 6.92743 27.6502 6.75243C27.5377 6.70243 26.0815 6.68368 22.6315 6.68368C17.8504 6.68368 17.7629 6.68368 17.6066 6.80868Z" fill="#151515"/>
<path d="M17.6502 12.1146C17.3752 12.2834 17.2752 12.5959 17.394 12.8896C17.5815 13.3333 17.2377 13.3083 22.6376 13.3083C26.0813 13.3083 27.5376 13.2896 27.6501 13.2396C28.025 13.0646 28.0938 12.4771 27.775 12.1771L27.6126 12.0271L22.7314 12.0084C18.0002 11.9959 17.8377 11.9959 17.6502 12.1146Z" fill="#151515"/>
<path d="M5.39993 18.7525C5.09368 18.84 4.61869 19.19 4.39369 19.4837C3.99995 20.0025 3.9937 20.0837 4.01245 23.4774L4.0312 26.5274L4.2437 26.9211C4.48119 27.3586 4.67494 27.5461 5.14993 27.7961L5.46867 27.9648H8.65612H11.8436L12.1998 27.7898C12.5873 27.6024 12.9185 27.2711 13.1373 26.8586L13.281 26.5899V23.3399V20.09L13.1123 19.7775C12.9123 19.4025 12.5685 19.065 12.1873 18.865L11.9061 18.715L8.74987 18.7025C6.95615 18.6963 5.50617 18.715 5.39993 18.7525ZM11.7936 20.2025L11.9686 20.3712L11.9873 23.2462C11.9998 25.7774 11.9936 26.1461 11.9061 26.3149C11.7186 26.6774 11.6498 26.6836 8.64987 26.6836C5.61867 26.6836 5.59992 26.6836 5.41243 26.2774C5.32493 26.1024 5.31243 25.6961 5.31243 23.3524C5.31243 21.4962 5.33743 20.5775 5.38118 20.44C5.42493 20.3275 5.54367 20.1775 5.64992 20.115C5.83742 20.0025 5.98117 19.9962 8.73112 20.0087L11.6248 20.0275L11.7936 20.2025Z" fill="#151515"/>
<path d="M17.6502 20.1146C17.3752 20.2834 17.2752 20.5959 17.394 20.8896C17.5815 21.3333 17.2377 21.3083 22.6376 21.3083C26.0813 21.3083 27.5376 21.2896 27.6501 21.2396C28.025 21.0646 28.0938 20.4771 27.775 20.1771L27.6126 20.0271L22.7314 20.0084C18.0002 19.9959 17.8377 19.9959 17.6502 20.1146Z" fill="#151515"/>
<path d="M17.7062 25.4086C17.525 25.5023 17.3125 25.8148 17.3125 25.9961C17.3125 26.0398 17.3562 26.1648 17.4125 26.2773C17.6125 26.6961 17.4125 26.6836 22.6499 26.6836C27.8311 26.6836 27.7061 26.6898 27.8998 26.3148C28.0248 26.0773 28.0248 25.9148 27.8998 25.6773C27.7061 25.3023 27.8311 25.3086 22.6437 25.3086C18.4687 25.3086 17.8812 25.3211 17.7062 25.4086Z" fill="#151515"/>
</svg>
