<svg width="32" height="32" viewBox="0 0 32 32" fill="none" xmlns="http://www.w3.org/2000/svg">
<g clip-path="url(#clip0_569_9872)">
<path d="M14.8128 0.037234C14.694 0.049734 14.3253 0.093484 14.0003 0.130984C12.2378 0.330984 10.0815 1.00598 8.50026 1.84973C7.80651 2.22473 6.54401 3.06848 5.87526 3.60598C5.20026 4.14973 4.15026 5.19973 3.60651 5.87473C1.69401 8.24973 0.544014 10.9185 0.119014 13.9997C0.0127642 14.7685 0.00651421 17.2247 0.112764 17.9685C0.637764 21.6685 2.16276 24.7685 4.69401 27.306C7.23152 29.8435 10.3253 31.356 14.0315 31.8872C14.7753 31.9935 17.2315 31.9872 18.0003 31.881C21.6253 31.381 24.794 29.8185 27.3128 27.2997C30.2128 24.3935 31.8315 20.656 31.9815 16.531C32.0628 14.0872 31.5878 11.6497 30.5878 9.42474C30.2503 8.66849 29.719 7.72474 29.5503 7.56849C29.2565 7.29349 28.7503 7.39974 28.594 7.76849C28.4815 8.03724 28.5253 8.20599 28.844 8.74349C29.6628 10.131 30.3378 12.1185 30.6065 13.906C30.7565 14.9435 30.7565 17.1247 30.6003 18.1122C30.4565 19.0247 30.194 20.1122 29.9065 20.9372C29.4315 22.306 28.4128 24.1372 27.5003 25.2497C27.1253 25.7122 25.869 26.9997 25.8003 26.9997C25.769 26.9997 25.7503 26.956 25.7503 26.906C25.7503 26.8497 25.6503 26.4935 25.5253 26.106C24.394 22.581 21.5253 20.031 17.8628 19.2997C16.8503 19.0997 15.1503 19.0997 14.1378 19.2997C10.3565 20.056 7.39402 22.781 6.37526 26.4372C6.29401 26.731 6.21901 26.981 6.20651 26.9935C6.16276 27.0497 4.99401 25.8435 4.53776 25.281C2.28151 22.506 1.12526 19.0122 1.27526 15.4372C1.36901 13.0685 1.96276 10.931 3.08151 8.90599C5.31276 4.86224 9.26276 2.11848 13.8753 1.39973C14.8753 1.24348 17.119 1.24348 18.1128 1.39973C20.569 1.78098 22.6753 2.63723 24.6128 4.03098C25.044 4.34348 25.2565 4.44973 25.4128 4.45598C25.8503 4.46848 26.1628 4.02473 26.0003 3.62473C25.9565 3.51848 25.7503 3.30598 25.5065 3.13098C23.319 1.51848 20.844 0.518484 18.0628 0.124734C17.5753 0.055984 15.194 -0.00651598 14.8128 0.037234ZM17.0628 20.4435C19.9628 20.7997 22.5128 22.5872 23.8065 25.1747C24.1253 25.8122 24.4565 26.7935 24.5815 27.4622L24.6753 27.9497L24.0065 28.3872C22.3003 29.4997 20.2753 30.2622 18.1128 30.5997C17.0378 30.7747 14.8065 30.756 13.719 30.5747C11.5753 30.206 9.63151 29.4622 7.99401 28.381L7.32526 27.9435L7.41901 27.456C8.02526 24.181 10.519 21.531 13.7878 20.6685C14.8503 20.3872 15.994 20.306 17.0628 20.4435Z" fill="black"/>
<path d="M27.1942 5.2125C26.6505 5.5125 26.8817 6.375 27.5005 6.375C27.8192 6.375 28.1255 6.06875 28.1255 5.75625C28.1255 5.2875 27.6067 4.98125 27.1942 5.2125Z" fill="black"/>
<path d="M14.8752 6.74328C12.7564 7.20578 11.1189 8.76203 10.5564 10.8433C10.4439 11.2495 10.4189 11.512 10.4189 12.2495C10.4189 12.987 10.4439 13.2495 10.5564 13.6558C11.1064 15.6808 12.6814 17.2183 14.7314 17.7308C15.3752 17.8933 16.7502 17.8745 17.4064 17.6933C19.3877 17.162 20.9064 15.637 21.4439 13.6558C21.5564 13.2495 21.5814 12.987 21.5814 12.2495C21.5814 11.512 21.5564 11.2495 21.4439 10.8433C20.9064 8.86203 19.3627 7.31828 17.4064 6.80578C16.6814 6.61828 15.5689 6.58703 14.8752 6.74328ZM16.8314 7.96203C18.1564 8.21828 19.3002 9.09953 19.9002 10.3245C20.5314 11.6183 20.5314 12.8808 19.8939 14.187C19.6564 14.6808 19.5189 14.8683 19.0689 15.3183C18.6189 15.7683 18.4314 15.9058 17.9377 16.1433C16.6314 16.7808 15.3689 16.7808 14.0627 16.1433C13.5689 15.9058 13.3814 15.7683 12.9314 15.3183C12.4877 14.8745 12.3439 14.6808 12.1002 14.187C11.4689 12.8995 11.4689 11.5995 12.1002 10.312C12.3439 9.81828 12.4877 9.62453 12.9314 9.18078C13.3752 8.73703 13.5689 8.59328 14.0627 8.34953C14.9752 7.89953 15.8564 7.78078 16.8314 7.96203Z" fill="black"/>
</g>
<defs>
<clipPath id="clip0_569_9872">
<rect width="32" height="32" fill="white"/>
</clipPath>
</defs>
</svg>
