<svg width="32" height="32" viewBox="0 0 32 32" fill="none" xmlns="http://www.w3.org/2000/svg">
<path d="M14.8079 0.0300342C12.5127 0.255139 10.7491 0.749121 8.87286 1.68081C4.70143 3.75052 1.66823 7.49602 0.492477 12.0419C-0.0891465 14.2804 -0.157941 16.8629 0.298603 19.1265C1.28048 23.9975 4.47003 28.1494 8.89788 30.3192C10.0799 30.8944 10.7991 31.1696 11.9498 31.4697C15.6084 32.4327 19.4484 32.07 22.8569 30.438C23.5698 30.0941 23.7699 29.969 23.87 29.8064C24.0639 29.4875 24.0951 29.1749 23.9513 28.856C23.795 28.5121 23.5073 28.2995 23.132 28.2682C22.8819 28.2432 22.7443 28.287 22.0501 28.6184C18.1851 30.4755 13.701 30.4567 9.83598 28.5684C6.12735 26.755 3.36307 23.3284 2.40621 19.3703C2.09351 18.0947 2.01846 17.4319 2.01846 15.9937C2.01846 14.493 2.09976 13.8552 2.45624 12.4608C3.32555 9.05925 5.58325 5.98282 8.56642 4.1382C12.6253 1.63078 17.5347 1.31188 21.8312 3.28155C27.6599 5.95155 30.9433 12.2733 29.7425 18.4949C29.5486 19.5204 29.6362 19.8893 30.1365 20.1769C30.6056 20.4396 31.1622 20.2957 31.4811 19.8268C31.6375 19.5892 31.8439 18.4574 31.9502 17.2443C32.1378 15.1183 31.7876 12.5609 31.0309 10.4974C30.7119 9.62827 29.8989 8.00251 29.3986 7.23965C27.8788 4.93233 25.7337 3.00642 23.3009 1.76209C21.456 0.824156 19.6736 0.292656 17.6285 0.0800568C16.8655 -0.00123117 15.3833 -0.0262421 14.8079 0.0300342Z" fill="#151515"/>
<path d="M16.5908 6.07656C16.3594 6.18286 16.153 6.40172 16.0654 6.63307C16.0154 6.75188 15.9966 8.37139 15.9966 11.6354L15.9904 16.4627L13.1385 18.3698C11.5625 19.4203 10.2242 20.3582 10.1491 20.452C9.97401 20.7021 9.97401 21.2962 10.1554 21.54C10.3618 21.8152 10.6494 21.9527 11.0247 21.959H11.3624L14.5332 19.8392C16.2843 18.6699 17.7665 17.632 17.8416 17.5382C17.9666 17.3631 17.9666 17.2943 17.9666 11.9918C17.9666 6.66434 17.9666 6.62057 17.8353 6.45174C17.7665 6.35795 17.6352 6.22038 17.5476 6.15785C17.335 6.00153 16.8409 5.95776 16.5908 6.07656Z" fill="#151515"/>
<path d="M26.5963 18.0829C26.34 18.1954 26.0773 18.5143 26.0336 18.7645C26.0148 18.877 26.0023 20.8529 26.0148 23.1665C26.0336 27.2934 26.0336 27.3685 26.1649 27.5373C26.4087 27.8687 26.6088 27.9688 27.0028 27.9688C27.3967 27.9688 27.5968 27.8687 27.8407 27.5373C27.972 27.3685 27.972 27.3122 27.972 22.9977C27.972 18.6832 27.972 18.6269 27.8407 18.4581C27.7719 18.3643 27.6406 18.2267 27.553 18.1642C27.3467 18.0078 26.8464 17.9641 26.5963 18.0829Z" fill="#151515"/>
<path d="M26.5963 30.0882C25.9648 30.3633 25.8147 31.2012 26.3087 31.6952C26.7152 32.1016 27.2904 32.1016 27.6969 31.6952C28.4722 30.9198 27.6031 29.6505 26.5963 30.0882Z" fill="#151515"/>
</svg>
