<svg width="173" height="173" viewBox="0 0 173 173" fill="none" xmlns="http://www.w3.org/2000/svg">
<rect width="173" height="173" rx="86.5" fill="#FEF6F0"/>
<path d="M81.6006 0.236523C63.5572 1.35156 46.7303 7.77148 32.8092 18.8543C1.75701 43.5203 -8.51486 86.027 7.83904 122.215C12.4006 132.284 20.1045 142.894 28.1463 150.125L30.7818 152.49L31.6941 151.78C32.9781 150.767 37.2693 148.3 50.1767 141.306C56.3263 137.961 61.9691 134.683 62.7463 134.007C63.5234 133.332 64.5709 131.913 65.1115 130.831C66.0238 128.973 66.0576 128.736 66.159 122.452L66.2941 115.998L64.7398 113.869C61.4623 109.443 58.0834 102.584 56.5629 97.3463C55.8871 95.0486 55.4478 94.1701 54.4342 93.0889C51.9 90.4533 51.8662 90.352 51.8662 81.0938C51.8662 72.2748 51.9338 71.768 53.7246 69.7744C54.299 69.1662 54.3666 68.085 54.5017 57.7793C54.6369 45.0746 54.7383 44.5002 57.1373 39.567C61.2258 31.2549 70.3488 26.6934 84.1347 26.1189C99.8804 25.477 111.335 30.3426 115.896 39.6346C118.295 44.534 118.363 45.0408 118.295 57.6104C118.228 68.6932 118.228 68.7945 118.937 69.4365C119.343 69.8082 120.019 70.7205 120.424 71.4639C121.1 72.7479 121.134 73.2885 121.134 81.0938C121.134 88.9666 121.1 89.4397 120.39 90.7574C119.546 92.3455 117.62 94.1701 116.065 94.8121C115.187 95.15 114.917 95.5893 114.41 97.2111C113.43 100.489 108.936 109.105 106.436 112.585L104.07 115.863V122.249C104.07 129.716 104.341 130.865 106.706 133.501C108.125 135.089 109.375 135.764 123.127 142.657C131.338 146.746 138.907 150.699 139.988 151.409L141.948 152.76L144.178 150.801C150.023 145.665 156.545 137.69 160.87 130.358C171.986 111.639 175.534 89.0342 170.77 67.5781C164.316 38.5533 143.063 14.6982 114.917 4.9332C104.408 1.28398 92.2441 -0.439259 81.6006 0.236523Z" fill="#151515"/>
</svg>
