<svg width="148" height="49" viewBox="0 0 148 49" fill="none" xmlns="http://www.w3.org/2000/svg">
<path fill-rule="evenodd" clip-rule="evenodd" d="M56.9115 0.614746H54.025V48.6147H56.9115V0.614746ZM64.2246 7.14311V19.5352H67.0748V9.47989H72.6689V19.5352H75.5191V7.14311H64.2246ZM81.2641 14.3659V17.2338H88.0089V19.5352H78.4139V7.14311H87.7788V9.44449H81.2641V12.1353H87.0175V14.3659H81.2641ZM90.1483 7.14311V19.5352H93.0162V16.1185H95.5123C96.6217 16.1185 97.5777 15.9415 98.3802 15.5874C99.1827 15.2215 99.8023 14.7023 100.239 14.0295C100.676 13.3568 100.894 12.5602 100.894 11.6397C100.894 10.7073 100.676 9.90477 100.239 9.23205C99.8023 8.55934 99.1827 8.04596 98.3802 7.6919C97.5777 7.32604 96.6217 7.14311 95.5123 7.14311H90.1483ZM93.0162 13.7817H95.353C96.2381 13.7817 96.899 13.5929 97.3357 13.2152C97.7724 12.8375 97.9907 12.3124 97.9907 11.6397C97.9907 10.9551 97.7724 10.4241 97.3357 10.0464C96.899 9.66873 96.2381 9.47989 95.353 9.47989H93.0162V13.7817ZM102.609 7.14311V19.5352H108.716C110.286 19.5352 111.478 19.2283 112.292 18.6146C113.118 17.9891 113.532 17.1335 113.532 16.0477C113.532 14.9973 113.148 14.1948 112.381 13.6401C112.05 13.401 111.661 13.2134 111.214 13.0774C111.429 12.9747 111.629 12.8555 111.814 12.7195C112.57 12.153 112.947 11.3623 112.947 10.3473C112.947 9.32057 112.546 8.52984 111.744 7.97515C110.941 7.42045 109.82 7.14311 108.38 7.14311H102.609ZM108.61 17.4108H105.459V14.2774H108.61C109.271 14.2774 109.773 14.4072 110.115 14.6669C110.457 14.9147 110.628 15.2983 110.628 15.8175C110.628 16.3604 110.457 16.7617 110.115 17.0213C109.773 17.281 109.271 17.4108 108.61 17.4108ZM108.132 12.277H105.459V9.26746H108.132C108.758 9.26746 109.23 9.39728 109.548 9.65692C109.867 9.90477 110.026 10.2765 110.026 10.7722C110.026 11.2679 109.867 11.6456 109.548 11.9052C109.23 12.153 108.758 12.277 108.132 12.277ZM125.094 12.2238C124.279 11.5511 123.123 11.2148 121.624 11.2148H118.473V7.14311H115.623V19.5352H121.217C122.81 19.5352 124.055 19.1693 124.952 18.4376C125.861 17.7059 126.315 16.6319 126.315 15.2156C126.315 13.882 125.908 12.8848 125.094 12.2238ZM122.792 16.862C122.367 17.2279 121.789 17.4108 121.057 17.4108H118.473V13.3391H121.057C121.801 13.3391 122.379 13.4926 122.792 13.7994C123.217 14.0945 123.43 14.5842 123.43 15.2688C123.43 15.9651 123.217 16.4962 122.792 16.862ZM130.741 7.14311H127.891V19.5352H130.741V7.14311ZM136.5 7.14311H133.65V19.5352H136.358L142.271 11.4803V19.5352H145.104V7.14311H142.413L136.5 15.2156V7.14311ZM136.766 5.63836C137.32 6.11044 138.188 6.34648 139.368 6.34648C140.536 6.34648 141.398 6.11044 141.952 5.63836C142.507 5.16628 142.79 4.49947 142.802 3.63793H140.837C140.825 4.0628 140.696 4.38735 140.448 4.61159C140.2 4.82403 139.84 4.93024 139.368 4.93024C138.884 4.93024 138.518 4.82403 138.27 4.61159C138.034 4.38735 137.91 4.0628 137.899 3.63793H135.933C135.945 4.49947 136.223 5.16628 136.766 5.63836ZM67.4111 41.2873C68.2373 41.5942 69.1283 41.7476 70.0843 41.7476C71.1701 41.7476 72.1437 41.5588 73.0053 41.1811C73.8786 40.8034 74.6103 40.2546 75.2004 39.5347L73.3593 37.8352C72.9344 38.3309 72.4624 38.7027 71.9431 38.9505C71.4238 39.1866 70.8573 39.3046 70.2436 39.3046C69.6653 39.3046 69.1342 39.2102 68.6503 39.0213C68.1665 38.8325 67.7475 38.5611 67.3934 38.207C67.0394 37.8529 66.762 37.434 66.5614 36.9501C66.3726 36.4662 66.2781 35.9292 66.2781 35.3391C66.2781 34.749 66.3726 34.212 66.5614 33.7282C66.762 33.2443 67.0394 32.8253 67.3934 32.4713C67.7475 32.1172 68.1665 31.8458 68.6503 31.6569C69.1342 31.4681 69.6653 31.3737 70.2436 31.3737C70.8573 31.3737 71.4238 31.4976 71.9431 31.7454C72.4624 31.9815 72.9344 32.3414 73.3593 32.8253L75.2004 31.1258C74.6103 30.4059 73.8786 29.863 73.0053 29.4972C72.1437 29.1195 71.1759 28.9307 70.102 28.9307C69.1342 28.9307 68.2432 29.09 67.4288 29.4087C66.6145 29.7155 65.9005 30.1581 65.2868 30.7364C64.6849 31.3147 64.2128 31.9933 63.8705 32.7722C63.5401 33.5511 63.3749 34.4068 63.3749 35.3391C63.3749 36.2715 63.5401 37.1271 63.8705 37.9061C64.2128 38.685 64.6849 39.3636 65.2868 39.9419C65.8887 40.5202 66.5968 40.9687 67.4111 41.2873ZM79.4447 31.4799V41.5352H82.2772V31.4799H86.2426V29.1431H75.4969V31.4799H79.4447ZM91.3687 29.1431L85.8454 41.5352H88.7841L89.8884 38.8797H95.6327L96.7327 41.5352H99.7422L94.2012 29.1431H91.3687ZM94.7307 36.7023L92.7661 31.9596L90.7939 36.7023H94.7307ZM101.209 29.1431V41.5352H104.076V38.1185H106.572C107.682 38.1185 108.638 37.9415 109.44 37.5874C110.243 37.2215 110.862 36.7023 111.299 36.0295C111.736 35.3568 111.954 34.5602 111.954 33.6397C111.954 32.7073 111.736 31.9048 111.299 31.2321C110.862 30.5593 110.243 30.046 109.44 29.6919C108.638 29.326 107.682 29.1431 106.572 29.1431H101.209ZM104.076 35.7817H106.413C107.298 35.7817 107.959 35.5929 108.396 35.2152C108.833 34.8376 109.051 34.3124 109.051 33.6397C109.051 32.9551 108.833 32.4241 108.396 32.0464C107.959 31.6687 107.298 31.4799 106.413 31.4799H104.076V35.7817ZM115.996 31.4799V41.5352H118.829V31.4799H122.794V29.1431H112.049V31.4799H115.996ZM40.9593 0.710102C35.1771 1.55465 27.3044 5.90876 20.0531 12.2898C19.3657 12.8997 18.8383 13.2845 18.6123 13.3502C18.2921 13.444 18.0378 13.4065 16.3333 13.0124C14.1768 12.5056 13.8095 12.4962 12.8207 12.9185C12.3404 13.1343 11.6247 13.81 6.28519 19.1306C2.98918 22.415 0.239359 25.2208 0.192273 25.3709C0.0698498 25.6806 0.192273 26.0372 0.465372 26.1873C0.568961 26.2436 2.67841 26.6096 5.14571 26.9943C8.4229 27.5104 9.76014 27.6793 10.0709 27.6418C10.683 27.548 11.3893 27.2664 11.9167 26.8911C12.1709 26.7128 12.4629 26.5627 12.5665 26.5627C12.6889 26.5627 14.4216 28.233 17.4822 31.2734C21.1455 34.9237 22.2191 36.0404 22.2191 36.2187C22.2191 36.35 22.0684 36.6597 21.8895 36.9224C21.4469 37.5606 21.1832 38.3582 21.1832 39.0244C21.1832 39.6625 22.4451 47.7796 22.6052 48.1737C22.7276 48.4646 22.9536 48.6147 23.2738 48.6147C23.4339 48.6147 25.0536 47.0476 29.5927 42.534C29.7561 42.3714 29.9154 42.2129 30.0708 42.0584C35.2994 36.8562 36.0127 36.1465 36.1679 35.3306C36.1924 35.2017 36.203 35.0702 36.2153 34.9178C36.2176 34.8893 36.2199 34.86 36.2224 34.8298C36.2695 34.295 36.213 33.9478 35.8834 32.5965C35.6762 31.7144 35.4973 30.8417 35.4973 30.654C35.4973 30.3631 35.6292 30.1754 36.6085 29.0775C42.1364 22.8748 46.2235 15.9026 47.702 10.1503C48.4554 7.22251 48.4365 5.03606 47.6361 3.30943C47.0522 2.05199 46.0069 1.18868 44.5849 0.80394C43.8033 0.597496 42.0517 0.550575 40.9593 0.710102ZM37.5973 7.748C38.4637 7.9263 39.2924 8.3861 39.9705 9.06174C42.7297 11.8112 41.4019 16.5313 37.6068 17.4228C36.3825 17.7137 34.8287 17.4603 33.8116 16.8128C31.6268 15.4146 30.8641 12.6933 32.0129 10.3755C33.0394 8.28288 35.243 7.25066 37.5973 7.748ZM9.10105 33.8352C9.84501 32.7091 10.8715 31.4047 11.3894 30.9355C11.8132 30.5602 11.8603 30.5414 12.2181 30.7291C12.6513 30.9637 18.2451 36.6222 18.3111 36.9037C18.3958 37.2415 18.3487 37.3072 17.4164 38.1611C15.533 39.8971 14.5536 40.4508 10.9092 41.8865C9.53424 42.4308 7.72614 43.2003 6.89743 43.585C5.33418 44.3169 5.04224 44.4014 4.94807 44.148C4.50546 42.9938 6.73734 37.4386 9.10105 33.8352Z" fill="#FEF6F0"/>
</svg>
