<svg width="1441" height="587" viewBox="0 0 1441 587" fill="none" xmlns="http://www.w3.org/2000/svg">
<g clip-path="url(#clip0_314_4726)">
<rect width="1440" height="587" transform="translate(0.701172)" fill="#1977F2"/>
<path d="M0.701172 0V461.289C36.4077 440.058 36.4077 440.058 89.4849 437.163C142.562 434.268 169.583 401.457 184.059 358.03C191.242 336.481 196.978 317.498 212.045 296.267C233.276 266.351 288.926 240.295 320.129 229.68C340.717 223.889 389.419 196.868 419.529 135.106C457.165 57.9024 493.837 60.7975 544.984 54.0422C585.901 48.638 616.075 15.7623 626.047 0H0.701172Z" fill="#0EBDF6"/>
<path d="M0.701172 0V441.023C71.1491 406.282 75.9743 347.414 76.9393 330.044C78.2371 306.684 68.254 291.442 63.4288 276.966C54.6142 250.523 60.3406 185.867 113.611 153.441C180.199 112.91 176.338 59.8325 176.338 45.3569C176.338 21.2309 170.227 8.042 166.688 0H0.701172Z" fill="#FBBC1D"/>
</g>
<defs>
<clipPath id="clip0_314_4726">
<rect width="1440" height="587" fill="white" transform="translate(0.701172)"/>
</clipPath>
</defs>
</svg>
