<svg width="1441" height="587" viewBox="0 0 1441 587" fill="none" xmlns="http://www.w3.org/2000/svg">
<g clip-path="url(#clip0_314_4729)">
<rect width="1440" height="587" transform="translate(1440.7 587) rotate(-180)" fill="#1977F2"/>
<path d="M1440.7 587V125.711C1404.99 146.942 1404.99 146.942 1351.92 149.837C1298.84 152.732 1271.82 185.543 1257.34 228.97C1250.16 250.519 1244.42 269.502 1229.36 290.733C1208.13 320.649 1152.48 346.705 1121.27 357.32C1100.69 363.111 1051.98 390.132 1021.87 451.894C984.237 529.098 947.566 526.202 896.419 532.958C855.501 538.362 825.327 571.238 815.355 587H1440.7Z" fill="#FBBC1D"/>
<path d="M1440.7 587V145.977C1370.25 180.718 1365.43 239.586 1364.46 256.956C1363.17 280.316 1373.15 295.558 1377.97 310.034C1386.79 336.477 1381.06 401.133 1327.79 433.559C1261.2 474.09 1265.06 527.168 1265.06 541.643C1265.06 565.769 1271.18 578.958 1274.71 587H1440.7Z" fill="#0EBDF6"/>
</g>
<defs>
<clipPath id="clip0_314_4729">
<rect width="1440" height="587" fill="white" transform="translate(1440.7 587) rotate(-180)"/>
</clipPath>
</defs>
</svg>
