<svg width="32" height="32" viewBox="0 0 32 32" fill="none" xmlns="http://www.w3.org/2000/svg">
<path d="M10.5351 7.03907C10.0039 7.14064 9.43357 7.58595 9.19138 8.09376C9.01169 8.47657 8.95701 8.89064 9.03904 9.26954C9.12888 9.67189 9.27341 9.96095 9.51951 10.2266C10.7148 11.5117 12.8203 10.6836 12.8203 8.92579C12.8203 7.69923 11.7383 6.8086 10.5351 7.03907Z" fill="black"/>
<path d="M20.2031 12.1484C20.0195 12.1875 19.7851 12.25 19.6758 12.2852C19.0234 12.5117 18.3672 13.0117 18.0156 13.5625L17.8593 13.7969L17.8515 13.0625L17.8398 12.3242L16.25 12.3125L14.6562 12.3047V17.6562V23.0078H16.3164H17.9765V20.1445C17.9765 17.293 17.9961 16.8281 18.1172 16.3477C18.2617 15.7852 18.6054 15.3359 19.039 15.1367C19.4843 14.9336 20.1992 14.9102 20.6484 15.0781C21.082 15.2422 21.4062 15.6445 21.5468 16.1953C21.664 16.6523 21.6875 17.2852 21.6875 20.125V22.9688H23.3476H25.0078V19.8516C25.0078 16.6289 24.9843 15.918 24.8476 15.1562C24.5273 13.3398 23.6054 12.3789 21.9336 12.1289C21.4062 12.0508 20.6211 12.0586 20.2031 12.1484Z" fill="black"/>
<path d="M9.26559 17.6562V23.0078H10.9258H12.5859V17.6562V12.3047H10.9258H9.26559V17.6562Z" fill="black"/>
<rect x="0.48" y="0.48" width="31.04" height="31.04" rx="15.52" stroke="black" stroke-width="0.96"/>
</svg>
