<svg width="98" height="32" viewBox="0 0 98 32" fill="none" xmlns="http://www.w3.org/2000/svg">
<path fill-rule="evenodd" clip-rule="evenodd" d="M37.8445 0H35.9202V32H37.8445V0ZM42.7445 4.81996V13.28H44.6903V6.41529H48.5095V13.28H50.4553V4.81996H42.7445ZM54.3774 9.75097V11.7089H58.9821V13.28H52.4316V4.81996H58.825V6.39112H54.3774V8.22816H58.3053V9.75097H54.3774ZM60.4427 4.81996V13.28H62.4006V10.9475H64.1047C64.8621 10.9475 65.5147 10.8266 66.0626 10.5849C66.6105 10.3351 67.0335 9.9806 67.3316 9.52134C67.6297 9.06208 67.7788 8.51822 67.7788 7.88976C67.7788 7.25324 67.6297 6.70535 67.3316 6.24609C67.0335 5.78683 66.6105 5.43634 66.0626 5.19462C65.5147 4.94485 64.8621 4.81996 64.1047 4.81996H60.4427ZM62.4006 9.35214H63.9959C64.6002 9.35214 65.0514 9.22322 65.3495 8.96539C65.6476 8.70756 65.7967 8.34902 65.7967 7.88976C65.7967 7.42244 65.6476 7.05986 65.3495 6.80203C65.0514 6.5442 64.6002 6.41529 63.9959 6.41529H62.4006V9.35214ZM68.9495 4.81996V13.28H73.1191C74.1907 13.28 75.0045 13.0705 75.5604 12.6516C76.1244 12.2245 76.4064 11.6404 76.4064 10.8991C76.4064 10.182 76.1446 9.63414 75.6209 9.25545C75.3951 9.09221 75.1296 8.96415 74.8245 8.87128C74.9712 8.80122 75.1077 8.71979 75.2341 8.62699C75.7498 8.24024 76.0076 7.70041 76.0076 7.00749C76.0076 6.30652 75.7337 5.76668 75.1858 5.38799C74.6379 5.0093 73.8724 4.81996 72.8895 4.81996H68.9495ZM73.0466 11.8297H70.8953V9.69054H73.0466C73.4978 9.69054 73.8402 9.77917 74.0739 9.95643C74.3075 10.1256 74.4244 10.3875 74.4244 10.742C74.4244 11.1126 74.3075 11.3866 74.0739 11.5638C73.8402 11.7411 73.4978 11.8297 73.0466 11.8297ZM72.7203 8.32485H70.8953V6.27026H72.7203C73.1473 6.27026 73.4696 6.35889 73.6871 6.53615C73.9047 6.70535 74.0134 6.95915 74.0134 7.29755C74.0134 7.63595 73.9047 7.89379 73.6871 8.07104C73.4696 8.24024 73.1473 8.32485 72.7203 8.32485ZM84.2999 8.28859C83.7439 7.82933 82.9543 7.5997 81.9311 7.5997H79.7798V4.81996H77.834V13.28H81.6531C82.7408 13.28 83.5909 13.0303 84.2032 12.5307C84.8236 12.0312 85.1338 11.298 85.1338 10.3311C85.1338 9.42063 84.8558 8.73979 84.2999 8.28859ZM82.7287 11.4551C82.4387 11.7048 82.0439 11.8297 81.5443 11.8297H79.7798V9.04999H81.5443C82.0519 9.04999 82.4467 9.15474 82.7287 9.36423C83.0188 9.56566 83.1638 9.90003 83.1638 10.3673C83.1638 10.8427 83.0188 11.2053 82.7287 11.4551ZM88.1553 4.81996H86.2094V13.28H88.1553V4.81996ZM92.087 4.81996H90.1412V13.28H91.9903L96.027 7.78098V13.28H97.9607V4.81996H96.1237L92.087 10.3311V4.81996ZM92.2683 3.79267C92.647 4.11495 93.2392 4.2761 94.0449 4.2761C94.8426 4.2761 95.4308 4.11495 95.8095 3.79267C96.1881 3.47038 96.3815 3.01515 96.3896 2.42697H95.048C95.04 2.71703 94.9514 2.9386 94.7822 3.09169C94.613 3.23672 94.3672 3.30923 94.0449 3.30923C93.7146 3.30923 93.4648 3.23672 93.2956 3.09169C93.1345 2.9386 93.0499 2.71703 93.0418 2.42697H91.7003C91.7083 3.01515 91.8977 3.47038 92.2683 3.79267ZM44.92 28.1108C45.484 28.3203 46.0923 28.4251 46.7449 28.4251C47.4862 28.4251 48.1509 28.2961 48.7391 28.0383C49.3353 27.7805 49.8349 27.4058 50.2377 26.9143L48.9808 25.7541C48.6907 26.0925 48.3685 26.3463 48.0139 26.5155C47.6594 26.6766 47.2727 26.7572 46.8537 26.7572C46.4589 26.7572 46.0963 26.6928 45.766 26.5638C45.4356 26.4349 45.1496 26.2496 44.9079 26.0079C44.6662 25.7662 44.4768 25.4802 44.3398 25.1498C44.2109 24.8195 44.1465 24.4529 44.1465 24.05C44.1465 23.6471 44.2109 23.2805 44.3398 22.9502C44.4768 22.6198 44.6662 22.3338 44.9079 22.0921C45.1496 21.8504 45.4356 21.6651 45.766 21.5361C46.0963 21.4072 46.4589 21.3428 46.8537 21.3428C47.2727 21.3428 47.6594 21.4274 48.0139 21.5966C48.3685 21.7577 48.6907 22.0035 48.9808 22.3338L50.2377 21.1736C49.8349 20.6821 49.3353 20.3114 48.7391 20.0617C48.1509 19.8038 47.4902 19.6749 46.757 19.6749C46.0963 19.6749 45.488 19.7837 44.9321 20.0012C44.3761 20.2107 43.8886 20.5129 43.4697 20.9077C43.0588 21.3025 42.7365 21.7658 42.5028 22.2976C42.2772 22.8293 42.1644 23.4135 42.1644 24.05C42.1644 24.6865 42.2772 25.2707 42.5028 25.8024C42.7365 26.3342 43.0588 26.7975 43.4697 27.1923C43.8806 27.5871 44.364 27.8933 44.92 28.1108ZM53.1353 21.4153V28.28H55.069V21.4153H57.7762V19.82H50.4402V21.4153H53.1353ZM63.2096 19.82H61.2758L57.5051 28.28H59.5113L60.2652 26.4672H64.1869L64.9379 28.28H66.9924L63.2096 19.82ZM63.5711 24.9806L62.2299 21.7428L60.8834 24.9806H63.5711ZM71.6555 19.82H67.9935V28.28H69.9514V25.9475H71.6555C72.4129 25.9475 73.0655 25.8266 73.6134 25.5849C74.1613 25.3351 74.5843 24.9806 74.8824 24.5213C75.1805 24.0621 75.3296 23.5182 75.3296 22.8898C75.3296 22.2532 75.1805 21.7053 74.8824 21.2461C74.5843 20.7868 74.1613 20.4363 73.6134 20.1946C73.0655 19.9448 72.4129 19.82 71.6555 19.82ZM69.9514 24.3521H71.5467C72.151 24.3521 72.6022 24.2232 72.9003 23.9654C73.1984 23.7076 73.3475 23.349 73.3475 22.8898C73.3475 22.4224 73.1984 22.0599 72.9003 21.802C72.6022 21.5442 72.151 21.4153 71.5467 21.4153H69.9514V24.3521ZM78.0892 21.4153V28.28H80.0229V21.4153H82.7301V19.82H75.3941V21.4153H78.0892ZM27.2097 0.06357C23.3549 0.626602 18.1064 3.52935 13.2722 7.78337C12.8139 8.19 12.4624 8.44649 12.3117 8.49028C12.0982 8.55284 11.9287 8.52782 10.7924 8.26507C9.35468 7.92725 9.10983 7.921 8.45063 8.20251C8.13045 8.3464 7.65331 8.79682 4.09361 12.3439C1.89627 14.5335 0.0630559 16.404 0.0316652 16.5041C-0.0499504 16.7106 0.0316652 16.9483 0.213731 17.0484C0.28279 17.0859 1.68909 17.3299 3.33396 17.5864C5.51875 17.9305 6.41024 18.0431 6.61742 18.018C7.0255 17.9555 7.49636 17.7678 7.84793 17.5176C8.01744 17.3987 8.21206 17.2986 8.28112 17.2986C8.36274 17.2986 9.51791 18.4122 11.5583 20.4391C14.0005 22.8726 14.7162 23.6171 14.7162 23.7359C14.7162 23.8235 14.6158 24.03 14.4965 24.2051C14.2014 24.6305 14.0256 25.1623 14.0256 25.6065C14.0256 26.0319 14.8669 31.4432 14.9736 31.706C15.0552 31.8999 15.2059 32 15.4194 32C15.5261 32 16.6059 30.9553 19.632 27.9462C19.7409 27.8378 19.8471 27.7321 19.9507 27.6291C23.4364 24.1609 23.9119 23.6878 24.0154 23.1439C24.0317 23.058 24.0388 22.9703 24.047 22.8687C24.0485 22.8497 24.0501 22.8302 24.0518 22.8101C24.0832 22.4535 24.0455 22.222 23.8258 21.3212C23.6876 20.7331 23.5684 20.1513 23.5684 20.0262C23.5684 19.8323 23.6563 19.7071 24.3092 18.9752C27.9944 14.84 30.7191 10.1919 31.7048 6.35702C32.2071 4.40517 32.1945 2.94755 31.6609 1.79646C31.2716 0.958166 30.5747 0.382622 29.6268 0.126129C29.1057 -0.0115013 27.9379 -0.042778 27.2097 0.06357ZM24.9684 4.7555C25.546 4.87437 26.0984 5.18091 26.5505 5.63133C28.39 7.46431 27.5047 10.611 24.9747 11.2053C24.1585 11.3993 23.1226 11.2304 22.4446 10.7987C20.988 9.86658 20.4795 8.05237 21.2455 6.50716C21.9298 5.11209 23.3988 4.42394 24.9684 4.7555ZM5.97082 22.1469C6.46679 21.3962 7.15111 20.5266 7.4964 20.2138C7.77892 19.9636 7.81031 19.9511 8.04888 20.0762C8.33767 20.2326 12.0669 24.0049 12.1108 24.1926C12.1673 24.4178 12.1359 24.4616 11.5144 25.0309C10.2588 26.1882 9.60585 26.5573 7.17622 27.5145C6.25961 27.8773 5.05421 28.3903 4.50174 28.6468C3.45957 29.1348 3.26495 29.1911 3.20217 29.0222C2.90709 28.2527 4.39501 24.5492 5.97082 22.1469Z" fill="white"/>
</svg>
