<svg width="380" height="190" viewBox="0 0 380 190" fill="none" xmlns="http://www.w3.org/2000/svg">
<path d="M11.704 183.336C10.192 183.336 8.78267 183.093 7.476 182.608C6.188 182.104 5.068 181.395 4.116 180.48C3.164 179.565 2.41733 178.492 1.876 177.26C1.35333 176.028 1.092 174.675 1.092 173.2C1.092 171.725 1.35333 170.372 1.876 169.14C2.41733 167.908 3.164 166.835 4.116 165.92C5.08667 165.005 6.216 164.305 7.504 163.82C8.792 163.316 10.2013 163.064 11.732 163.064C13.4307 163.064 14.9613 163.363 16.324 163.96C17.7053 164.539 18.8627 165.397 19.796 166.536L16.884 169.224C16.212 168.459 15.4653 167.889 14.644 167.516C13.8227 167.124 12.9267 166.928 11.956 166.928C11.0413 166.928 10.2013 167.077 9.436 167.376C8.67067 167.675 8.008 168.104 7.448 168.664C6.888 169.224 6.44933 169.887 6.132 170.652C5.83333 171.417 5.684 172.267 5.684 173.2C5.684 174.133 5.83333 174.983 6.132 175.748C6.44933 176.513 6.888 177.176 7.448 177.736C8.008 178.296 8.67067 178.725 9.436 179.024C10.2013 179.323 11.0413 179.472 11.956 179.472C12.9267 179.472 13.8227 179.285 14.644 178.912C15.4653 178.52 16.212 177.932 16.884 177.148L19.796 179.836C18.8627 180.975 17.7053 181.843 16.324 182.44C14.9613 183.037 13.4213 183.336 11.704 183.336ZM26.509 183V166.06L27.545 167.096H20.265V163.4H37.261V167.096H29.981L30.989 166.06V183H26.509ZM39.8291 183V163.4H48.3131C50.0678 163.4 51.5798 163.689 52.8491 164.268C54.1185 164.828 55.0985 165.64 55.7891 166.704C56.4798 167.768 56.8251 169.037 56.8251 170.512C56.8251 171.968 56.4798 173.228 55.7891 174.292C55.0985 175.356 54.1185 176.177 52.8491 176.756C51.5798 177.316 50.0678 177.596 48.3131 177.596H42.3491L44.3651 175.552V183H39.8291ZM44.3651 176.056L42.3491 173.9H48.0611C49.4611 173.9 50.5065 173.601 51.1971 173.004C51.8878 172.407 52.2331 171.576 52.2331 170.512C52.2331 169.429 51.8878 168.589 51.1971 167.992C50.5065 167.395 49.4611 167.096 48.0611 167.096H42.3491L44.3651 164.94V176.056ZM56.341 183L65.077 163.4H69.557L78.321 183H73.561L66.393 165.696H68.185L60.989 183H56.341ZM60.709 178.8L61.913 175.356H71.993L73.225 178.8H60.709ZM94.0802 163.4H98.6162V183H94.0802V163.4ZM85.1762 183H80.6402V163.4H85.1762V183ZM94.4162 174.964H84.8402V171.128H94.4162V174.964ZM103.247 183V163.4H107.755V176.168L117.107 163.4H121.363V183H116.883V170.26L107.531 183H103.247ZM125.963 183V163.4H130.471V179.304H139.207V163.4H143.715V183H125.963ZM142.343 187.144V181.936L143.323 183H139.207V179.304H146.515V187.144H142.343ZM147.123 183L155.859 163.4H160.339L169.103 183H164.343L157.175 165.696H158.967L151.771 183H147.123ZM151.491 178.8L152.695 175.356H162.775L164.007 178.8H151.491ZM192.512 163.4H197.048V183H192.512V163.4ZM183.608 183H179.072V163.4H183.608V183ZM192.848 174.964H183.272V171.128H192.848V174.964ZM205.851 171.296H215.287V174.824H205.851V171.296ZM206.187 179.36H216.855V183H201.679V163.4H216.491V167.04H206.187V179.36ZM241.329 163.4H245.865V183H241.329V163.4ZM232.424 183H227.888V163.4H232.424V183ZM241.665 174.964H232.088V171.128H241.665V174.964ZM248.283 183L257.019 163.4H261.499L270.263 183H265.503L258.335 165.696H260.127L252.931 183H248.283ZM252.651 178.8L253.855 175.356H263.935L265.167 178.8H252.651ZM272.582 183V163.4H277.09V176.168L286.442 163.4H290.698V183H286.218V170.26L276.866 183H272.582ZM281.626 162.14C279.76 162.14 278.388 161.767 277.51 161.02C276.652 160.273 276.213 159.219 276.194 157.856H279.302C279.321 158.528 279.517 159.041 279.89 159.396C280.282 159.732 280.861 159.9 281.626 159.9C282.373 159.9 282.942 159.732 283.334 159.396C283.726 159.041 283.932 158.528 283.95 157.856H287.058C287.04 159.219 286.592 160.273 285.714 161.02C284.837 161.767 283.474 162.14 281.626 162.14ZM308.154 180.984V167.096H301.434L301.35 169.952C301.294 171.165 301.21 172.313 301.098 173.396C301.004 174.479 300.855 175.468 300.65 176.364C300.444 177.241 300.174 177.988 299.838 178.604C299.52 179.22 299.119 179.659 298.634 179.92L293.79 179.304C294.462 179.323 295.012 179.089 295.442 178.604C295.89 178.119 296.244 177.437 296.506 176.56C296.767 175.664 296.954 174.619 297.066 173.424C297.196 172.229 297.29 170.932 297.346 169.532L297.57 163.4H312.634V180.984H308.154ZM293.146 187.06L293.174 179.304H315.378V187.06H311.178V183H297.346V187.06H293.146ZM322.323 171.296H331.759V174.824H322.323V171.296ZM322.659 179.36H333.327V183H318.151V163.4H332.963V167.04H322.659V179.36ZM350.151 163.4H354.687V183H350.151V163.4ZM341.247 183H336.711V163.4H341.247V183ZM350.487 174.964H340.911V171.128H350.487V174.964ZM357.106 183L365.842 163.4H370.322L379.086 183H374.326L367.158 165.696H368.95L361.754 183H357.106ZM361.474 178.8L362.678 175.356H372.758L373.99 178.8H361.474Z" fill="#151515"/>
<path d="M41.844 27.336C40.2947 27.336 38.8573 27.084 37.532 26.58C36.2253 26.076 35.0867 25.3667 34.116 24.452C33.164 23.5373 32.4173 22.464 31.876 21.232C31.3533 20 31.092 18.656 31.092 17.2C31.092 15.744 31.3533 14.4 31.876 13.168C32.4173 11.936 33.1733 10.8627 34.144 9.948C35.1147 9.03333 36.2533 8.324 37.56 7.82C38.8667 7.316 40.2853 7.064 41.816 7.064C43.3653 7.064 44.784 7.316 46.072 7.82C47.3787 8.324 48.508 9.03333 49.46 9.948C50.4307 10.8627 51.1867 11.936 51.728 13.168C52.2693 14.3813 52.54 15.7253 52.54 17.2C52.54 18.656 52.2693 20.0093 51.728 21.26C51.1867 22.492 50.4307 23.5653 49.46 24.48C48.508 25.376 47.3787 26.076 46.072 26.58C44.784 27.084 43.3747 27.336 41.844 27.336ZM41.816 23.472C42.6933 23.472 43.496 23.3227 44.224 23.024C44.9707 22.7253 45.624 22.296 46.184 21.736C46.744 21.176 47.1733 20.5133 47.472 19.748C47.7893 18.9827 47.948 18.1333 47.948 17.2C47.948 16.2667 47.7893 15.4173 47.472 14.652C47.1733 13.8867 46.744 13.224 46.184 12.664C45.6427 12.104 44.9987 11.6747 44.252 11.376C43.5053 11.0773 42.6933 10.928 41.816 10.928C40.9387 10.928 40.1267 11.0773 39.38 11.376C38.652 11.6747 38.008 12.104 37.448 12.664C36.888 13.224 36.4493 13.8867 36.132 14.652C35.8333 15.4173 35.684 16.2667 35.684 17.2C35.684 18.1147 35.8333 18.964 36.132 19.748C36.4493 20.5133 36.8787 21.176 37.42 21.736C37.98 22.296 38.6333 22.7253 39.38 23.024C40.1267 23.3227 40.9387 23.472 41.816 23.472ZM65.189 27.336C63.6397 27.336 62.2023 27.084 60.877 26.58C59.5703 26.076 58.4317 25.3667 57.461 24.452C56.509 23.5373 55.7623 22.464 55.221 21.232C54.6983 20 54.437 18.656 54.437 17.2C54.437 15.744 54.6983 14.4 55.221 13.168C55.7623 11.936 56.5183 10.8627 57.489 9.948C58.4597 9.03333 59.5983 8.324 60.905 7.82C62.2117 7.316 63.6303 7.064 65.161 7.064C66.7103 7.064 68.129 7.316 69.417 7.82C70.7237 8.324 71.853 9.03333 72.805 9.948C73.7757 10.8627 74.5317 11.936 75.073 13.168C75.6143 14.3813 75.885 15.7253 75.885 17.2C75.885 18.656 75.6143 20.0093 75.073 21.26C74.5317 22.492 73.7757 23.5653 72.805 24.48C71.853 25.376 70.7237 26.076 69.417 26.58C68.129 27.084 66.7197 27.336 65.189 27.336ZM65.161 23.472C66.0383 23.472 66.841 23.3227 67.569 23.024C68.3157 22.7253 68.969 22.296 69.529 21.736C70.089 21.176 70.5183 20.5133 70.817 19.748C71.1343 18.9827 71.293 18.1333 71.293 17.2C71.293 16.2667 71.1343 15.4173 70.817 14.652C70.5183 13.8867 70.089 13.224 69.529 12.664C68.9877 12.104 68.3437 11.6747 67.597 11.376C66.8503 11.0773 66.0383 10.928 65.161 10.928C64.2837 10.928 63.4717 11.0773 62.725 11.376C61.997 11.6747 61.353 12.104 60.793 12.664C60.233 13.224 59.7943 13.8867 59.477 14.652C59.1783 15.4173 59.029 16.2667 59.029 17.2C59.029 18.1147 59.1783 18.964 59.477 19.748C59.7943 20.5133 60.2237 21.176 60.765 21.736C61.325 22.296 61.9783 22.7253 62.725 23.024C63.4717 23.3227 64.2837 23.472 65.161 23.472ZM79.014 27V7.4H87.498C89.2527 7.4 90.7647 7.68933 92.034 8.268C93.3033 8.828 94.2833 9.64 94.974 10.704C95.6647 11.768 96.01 13.0373 96.01 14.512C96.01 15.968 95.6647 17.228 94.974 18.292C94.2833 19.356 93.3033 20.1773 92.034 20.756C90.7647 21.316 89.2527 21.596 87.498 21.596H81.534L83.55 19.552V27H79.014ZM83.55 20.056L81.534 17.9H87.246C88.646 17.9 89.6913 17.6013 90.382 17.004C91.0727 16.4067 91.418 15.576 91.418 14.512C91.418 13.4293 91.0727 12.5893 90.382 11.992C89.6913 11.3947 88.646 11.096 87.246 11.096H81.534L83.55 8.94V20.056ZM105.682 27.336C104.114 27.336 102.611 27.1307 101.174 26.72C99.7365 26.2907 98.5791 25.74 97.7018 25.068L99.2418 21.652C100.082 22.2493 101.071 22.744 102.21 23.136C103.367 23.5093 104.534 23.696 105.71 23.696C106.606 23.696 107.324 23.612 107.866 23.444C108.426 23.2573 108.836 23.0053 109.098 22.688C109.359 22.3707 109.49 22.0067 109.49 21.596C109.49 21.0733 109.284 20.6627 108.874 20.364C108.463 20.0467 107.922 19.7947 107.25 19.608C106.578 19.4027 105.831 19.216 105.01 19.048C104.207 18.8613 103.395 18.6373 102.574 18.376C101.771 18.1147 101.034 17.7787 100.362 17.368C99.6898 16.9573 99.1391 16.416 98.7098 15.744C98.2991 15.072 98.0938 14.2133 98.0938 13.168C98.0938 12.048 98.3925 11.0307 98.9898 10.116C99.6058 9.18267 100.52 8.44533 101.734 7.904C102.966 7.344 104.506 7.064 106.354 7.064C107.586 7.064 108.799 7.21333 109.994 7.512C111.188 7.792 112.243 8.22133 113.158 8.8L111.758 12.244C110.843 11.7213 109.928 11.3387 109.014 11.096C108.099 10.8347 107.203 10.704 106.326 10.704C105.448 10.704 104.73 10.8067 104.17 11.012C103.61 11.2173 103.208 11.488 102.966 11.824C102.723 12.1413 102.602 12.5147 102.602 12.944C102.602 13.448 102.807 13.8587 103.218 14.176C103.628 14.4747 104.17 14.7173 104.842 14.904C105.514 15.0907 106.251 15.2773 107.054 15.464C107.875 15.6507 108.687 15.8653 109.49 16.108C110.311 16.3507 111.058 16.6773 111.73 17.088C112.402 17.4987 112.943 18.04 113.354 18.712C113.783 19.384 113.998 20.2333 113.998 21.26C113.998 22.3613 113.69 23.3693 113.074 24.284C112.458 25.1987 111.534 25.936 110.302 26.496C109.088 27.056 107.548 27.336 105.682 27.336ZM118.708 27.224C117.961 27.224 117.317 26.972 116.776 26.468C116.253 25.9453 115.992 25.2827 115.992 24.48C115.992 23.6773 116.253 23.0333 116.776 22.548C117.317 22.044 117.961 21.792 118.708 21.792C119.473 21.792 120.117 22.044 120.64 22.548C121.163 23.0333 121.424 23.6773 121.424 24.48C121.424 25.2827 121.163 25.9453 120.64 26.468C120.117 26.972 119.473 27.224 118.708 27.224ZM125.756 27.224C125.01 27.224 124.366 26.972 123.824 26.468C123.302 25.9453 123.04 25.2827 123.04 24.48C123.04 23.6773 123.302 23.0333 123.824 22.548C124.366 22.044 125.01 21.792 125.756 21.792C126.522 21.792 127.166 22.044 127.688 22.548C128.211 23.0333 128.472 23.6773 128.472 24.48C128.472 25.2827 128.211 25.9453 127.688 26.468C127.166 26.972 126.522 27.224 125.756 27.224ZM132.804 27.224C132.058 27.224 131.414 26.972 130.872 26.468C130.35 25.9453 130.088 25.2827 130.088 24.48C130.088 23.6773 130.35 23.0333 130.872 22.548C131.414 22.044 132.058 21.792 132.804 21.792C133.57 21.792 134.214 22.044 134.736 22.548C135.259 23.0333 135.52 23.6773 135.52 24.48C135.52 25.2827 135.259 25.9453 134.736 26.468C134.214 26.972 133.57 27.224 132.804 27.224Z" fill="#151515"/>
<path d="M62.968 117.184V103.232L105.208 46.4H126.968L85.624 103.232L75.512 100.288H146.04V117.184H62.968ZM111.224 136V117.184L111.864 100.288V83.52H131.448V136H111.224ZM189.362 137.536C182.023 137.536 175.453 135.744 169.65 132.16C163.847 128.491 159.282 123.2 155.954 116.288C152.626 109.376 150.962 101.013 150.962 91.2C150.962 81.3867 152.626 73.024 155.954 66.112C159.282 59.2 163.847 53.952 169.65 50.368C175.453 46.6987 182.023 44.864 189.362 44.864C196.786 44.864 203.357 46.6987 209.074 50.368C214.877 53.952 219.442 59.2 222.77 66.112C226.098 73.024 227.762 81.3867 227.762 91.2C227.762 101.013 226.098 109.376 222.77 116.288C219.442 123.2 214.877 128.491 209.074 132.16C203.357 135.744 196.786 137.536 189.362 137.536ZM189.362 120C192.861 120 195.89 119.019 198.45 117.056C201.095 115.093 203.143 111.979 204.594 107.712C206.13 103.445 206.898 97.9413 206.898 91.2C206.898 84.4587 206.13 78.9547 204.594 74.688C203.143 70.4213 201.095 67.3067 198.45 65.344C195.89 63.3813 192.861 62.4 189.362 62.4C185.949 62.4 182.919 63.3813 180.274 65.344C177.714 67.3067 175.666 70.4213 174.13 74.688C172.679 78.9547 171.954 84.4587 171.954 91.2C171.954 97.9413 172.679 103.445 174.13 107.712C175.666 111.979 177.714 115.093 180.274 117.056C182.919 119.019 185.949 120 189.362 120ZM235.533 117.184V103.232L277.773 46.4H299.533L258.189 103.232L248.077 100.288H318.605V117.184H235.533ZM283.789 136V117.184L284.429 100.288V83.52H304.013V136H283.789Z" fill="#151515"/>
</svg>
