<svg width="32" height="32" viewBox="0 0 32 32" fill="none" xmlns="http://www.w3.org/2000/svg">
<path d="M15.3313 0.0935762C14.45 0.331076 13.7688 0.974826 13.4625 1.84358C13.3813 2.07483 13.3438 2.44983 13.3188 3.26858L13.2813 4.38733L12.75 4.59358C11.5375 5.05608 10.5 5.70608 9.6125 6.54983C8.45625 7.65608 7.65 8.91233 7.1625 10.3811C6.7375 11.6498 6.7375 11.6561 6.6875 15.1561C6.6375 18.4998 6.6125 18.8186 6.3125 19.9061C6.1375 20.5186 5.98125 20.9123 5.63125 21.6123C5.18125 22.5061 4.625 23.2436 3.775 24.0936C2.80625 25.0561 2.71875 25.2186 2.71875 25.9998C2.71875 26.4998 2.74375 26.6373 2.8625 26.8623C3.08125 27.2748 3.4125 27.6061 3.8 27.7936L4.15625 27.9686L7.7625 27.9873L11.375 28.0061L11.4125 28.1748C11.6125 29.0998 11.9813 29.8248 12.5438 30.4311C13.4313 31.3998 14.4438 31.8936 15.7125 31.9811C17.0813 32.0748 18.2875 31.5998 19.3125 30.5686C20.0125 29.8623 20.3625 29.2061 20.5875 28.1748L20.625 28.0061L24.2375 27.9873L27.8438 27.9686L28.2 27.7936C28.5875 27.6061 28.9188 27.2748 29.1375 26.8623C29.2563 26.6373 29.2813 26.4998 29.2813 25.9998C29.2813 25.2123 29.1875 25.0498 28.225 24.0936C26.9375 22.8123 26.15 21.5123 25.6813 19.8936C25.3938 18.8873 25.3625 18.4873 25.3125 15.1561C25.2625 11.6623 25.2563 11.6498 24.8438 10.3998C24.3563 8.92483 23.5438 7.64983 22.3875 6.54983C21.5 5.70608 20.4625 5.05608 19.25 4.59358L18.7188 4.38733L18.6813 3.26858C18.65 2.36858 18.6188 2.08733 18.5188 1.79983C18.0313 0.474826 16.6563 -0.262674 15.3313 0.0935762ZM16.6438 1.51233C16.7875 1.59358 16.9875 1.77483 17.0938 1.92483C17.2813 2.19358 17.2813 2.20608 17.3 3.11233L17.3188 4.03108H16.0063H14.6875V3.19983C14.6875 2.59358 14.7125 2.30608 14.7813 2.13733C15.0875 1.41233 15.9438 1.12483 16.6438 1.51233ZM17.45 5.47483C20.3063 6.01858 22.6813 8.08108 23.5875 10.8123C23.9438 11.8936 23.95 11.9811 24 15.4061C24.0438 18.8248 24.0688 19.1123 24.4188 20.3123C24.95 22.1436 26.0875 23.9936 27.4063 25.1623C28 25.6936 28.1063 25.9311 27.9 26.3186C27.7 26.7123 28.4563 26.6873 16 26.6873C3.54375 26.6873 4.3 26.7123 4.1 26.3186C3.89375 25.9311 4 25.6936 4.59375 25.1623C5.9125 23.9936 7.05 22.1436 7.58125 20.3123C7.925 19.1186 7.95 18.8248 8 15.4061C8.05 11.9873 8.05625 11.8873 8.4125 10.8123C9.025 8.96858 10.3813 7.33108 12.1125 6.34983C12.95 5.87483 14.1 5.50608 15.1375 5.37483C15.7188 5.30608 16.7875 5.34983 17.45 5.47483ZM19.225 28.1686C19.1375 28.5436 18.7563 29.2373 18.4625 29.5561C17.8188 30.2686 17.0063 30.6311 16.0313 30.6436C15.0563 30.6498 14.2063 30.2811 13.5625 29.5811C13.25 29.2373 12.8688 28.5561 12.775 28.1686L12.7375 27.9998H16H19.2625L19.225 28.1686Z" fill="black"/>
</svg>
