<svg width="45" height="45" viewBox="0 0 45 45" fill="none" xmlns="http://www.w3.org/2000/svg">
<rect width="45" height="45" rx="22.5" fill="#FEF6F0"/>
<path d="M21.2255 0.0615196C16.5322 0.351559 12.1552 2.02148 8.53411 4.90429C0.456963 11.3203 -2.21491 22.377 2.03899 31.79C3.22552 34.4092 5.22942 37.1689 7.32122 39.0498L8.00677 39.665L8.24407 39.4805C8.57806 39.2168 9.69427 38.5752 13.0517 36.7559C14.6513 35.8857 16.1191 35.0332 16.3212 34.8574C16.5234 34.6816 16.7958 34.3125 16.9365 34.0312C17.1738 33.5479 17.1826 33.4863 17.2089 31.8516L17.2441 30.1729L16.8398 29.6191C15.9872 28.4678 15.1083 26.6836 14.7128 25.3213C14.537 24.7236 14.4228 24.4951 14.1591 24.2139C13.4999 23.5283 13.4911 23.502 13.4911 21.0937C13.4911 18.7998 13.5087 18.668 13.9745 18.1494C14.124 17.9912 14.1415 17.71 14.1767 15.0293C14.2118 11.7246 14.2382 11.5752 14.8622 10.292C15.9257 8.12988 18.2988 6.94336 21.8847 6.79394C25.9804 6.62695 28.9599 7.89257 30.1464 10.3096C30.7704 11.584 30.788 11.7158 30.7704 14.9853C30.7529 17.8682 30.7529 17.8945 30.9374 18.0615C31.0429 18.1582 31.2187 18.3955 31.3242 18.5889C31.4999 18.9228 31.5087 19.0635 31.5087 21.0937C31.5087 23.1416 31.4999 23.2646 31.3154 23.6074C31.0956 24.0205 30.5947 24.4951 30.1904 24.6621C29.9618 24.75 29.8915 24.8643 29.7597 25.2861C29.5048 26.1387 28.3359 28.3799 27.6855 29.2852L27.0702 30.1377V31.7988C27.0702 33.7412 27.1406 34.04 27.7558 34.7256C28.1249 35.1387 28.4501 35.3145 32.0273 37.1074C34.163 38.1709 36.1318 39.1992 36.413 39.3838L36.9228 39.7354L37.5029 39.2256C39.0234 37.8896 40.7197 35.8154 41.8447 33.9082C44.7363 29.0391 45.6591 23.1592 44.4199 17.5781C42.7411 10.0283 37.2128 3.82324 29.8915 1.2832C27.1581 0.333981 23.9941 -0.114262 21.2255 0.0615196Z" fill="#657076"/>
</svg>
