<svg width="16" height="16" viewBox="0 0 16 16" fill="none" xmlns="http://www.w3.org/2000/svg">
<g clip-path="url(#clip0_1604_50475)">
<path opacity="0.987" fill-rule="evenodd" clip-rule="evenodd" d="M15.297 -0.015625C15.422 -0.015625 15.547 -0.015625 15.672 -0.015625C15.8074 0.0572916 15.9116 0.161458 15.9845 0.296875C15.9845 0.442709 15.9845 0.588541 15.9845 0.734375C15.3657 4.791 14.7564 8.8535 14.1564 12.9219C14.0244 13.2927 13.7692 13.4125 13.3907 13.2812C11.0818 12.4995 8.77968 11.7026 6.4845 10.8906C8.6609 8.26106 10.8432 5.63606 13.0314 3.01562C13.0522 2.99479 13.0522 2.97396 13.0314 2.95312C10.187 5.38606 7.33806 7.81316 4.4845 10.2344C3.02836 9.75075 1.58044 9.24553 0.140747 8.71875C0.0918186 8.64606 0.0397352 8.57837 -0.0155029 8.51562C-0.0155029 8.39062 -0.0155029 8.26562 -0.0155029 8.14062C0.0380318 8.03984 0.110948 7.95128 0.203247 7.875C5.24625 5.25981 10.2775 2.6296 15.297 -0.015625Z" fill="#657076"/>
<path opacity="0.966" fill-rule="evenodd" clip-rule="evenodd" d="M5.797 11.7031C6.71985 12.0055 7.6365 12.3232 8.547 12.6562C7.91638 13.532 7.27056 14.3966 6.6095 15.25C6.22438 15.4204 5.95875 15.3111 5.81263 14.9219C5.797 13.849 5.79178 12.7761 5.797 11.7031Z" fill="#657076"/>
</g>
<defs>
<clipPath id="clip0_1604_50475">
<rect width="16" height="16" fill="white"/>
</clipPath>
</defs>
</svg>
