<svg width="32" height="33" viewBox="0 0 32 33" fill="none" xmlns="http://www.w3.org/2000/svg">
<g clip-path="url(#clip0_519_254)">
<path opacity="0.987" fill-rule="evenodd" clip-rule="evenodd" d="M25.2598 8.96003C25.2598 9.21336 25.2598 9.46669 25.2598 9.72003C24.1899 14.689 23.1166 19.6623 22.0398 24.64C21.6893 25.3831 21.1493 25.5497 20.4198 25.14C18.8425 24.0013 17.2758 22.848 15.7198 21.68C14.8743 22.4587 14.041 23.2521 13.2198 24.06C12.9963 24.2345 12.743 24.3078 12.4598 24.28C12.5674 22.6798 12.6807 21.0798 12.7998 19.48C15.7724 16.854 18.7191 14.2007 21.6398 11.52C21.6665 11.48 21.6665 11.44 21.6398 11.4C21.577 11.3657 21.5103 11.339 21.4398 11.32C21.2757 11.3521 21.1223 11.4121 20.9798 11.5C17.3697 13.755 13.7631 16.015 10.1598 18.28C8.56999 17.7723 6.97665 17.2723 5.37979 16.78C5.13842 16.6909 4.93842 16.5509 4.77979 16.36C4.77979 16.2267 4.77979 16.0933 4.77979 15.96C4.89335 15.7623 5.05335 15.609 5.25979 15.5C11.4535 13.0977 17.6535 10.711 23.8598 8.34003C24.5418 8.09483 25.0085 8.30149 25.2598 8.96003Z" fill="#151515"/>
</g>
<rect x="0.48" y="0.98" width="31.04" height="31.04" rx="15.52" stroke="#151515" stroke-width="0.96"/>
<defs>
<clipPath id="clip0_519_254">
<rect width="20.48" height="20.48" fill="white" transform="translate(4.7998 6.58008)"/>
</clipPath>
</defs>
</svg>
