<svg width="32" height="32" viewBox="0 0 32 32" fill="none" xmlns="http://www.w3.org/2000/svg">
<g clip-path="url(#clip0_1624_56548)">
<path d="M6 15.8476V21.9414L9.29297 21.9258C12.7578 21.9101 12.8203 21.9062 13.5469 21.7226C13.9258 21.625 14.5391 21.3086 14.8477 21.0508C15.4648 20.5312 15.8906 19.8125 16.0586 19.0078C16.1328 18.6601 16.1406 17.9492 16.0742 17.5781C15.9102 16.625 15.3438 15.9023 14.4492 15.4961L14.2422 15.4023L14.5078 15.2461C14.875 15.0234 15.293 14.5976 15.4453 14.2812C15.832 13.4882 15.8281 12.3007 15.4336 11.4882C14.9727 10.5312 13.9883 9.94137 12.6094 9.79294C12.3516 9.76559 11.1055 9.74997 9.10547 9.74997H6V15.8476ZM12.2109 11.9531C12.6367 12.0429 12.9062 12.1914 13.0586 12.4179C13.2227 12.6601 13.2656 12.8242 13.2656 13.1914C13.2656 13.7695 13.0508 14.1328 12.5977 14.3398C12.1641 14.5351 11.9219 14.5547 10.1172 14.5547H8.46094V13.2031V11.8515L10.1914 11.8711C11.5781 11.8867 11.9766 11.9023 12.2109 11.9531ZM12.4336 16.6718C12.7852 16.7773 12.9805 16.8945 13.1836 17.1172C13.4492 17.4062 13.5195 17.625 13.5156 18.1484C13.5039 19.1211 13.0352 19.6484 12.0664 19.789C11.918 19.8086 11.0508 19.8281 10.1328 19.8281H8.46094V18.2031V16.582L10.3477 16.5976C11.9258 16.6093 12.2656 16.6211 12.4336 16.6718Z" fill="black"/>
<path d="M18.7734 11.0781V11.8203H21.4297H24.0859V11.0781V10.3359H21.4297H18.7734V11.0781Z" fill="black"/>
<path d="M20.8438 12.7226C19.0782 12.9023 17.6876 14.0195 17.1954 15.6484C16.8711 16.7226 16.8555 18.2304 17.1563 19.2656C17.4688 20.3515 18.0079 21.0234 19.0391 21.6093C19.9258 22.1172 21.1524 22.3476 22.2344 22.2148C23.418 22.0664 24.2071 21.7109 24.9063 21C25.3946 20.5078 25.7305 19.9609 25.8399 19.4804L25.8751 19.3203H24.6485H23.4219L23.2852 19.5312C23.0391 19.9179 22.6524 20.1718 22.1407 20.2812C21.1016 20.5 20.0079 20.0586 19.6211 19.2656C19.4883 18.9961 19.3594 18.5078 19.3594 18.2773V18.1093H22.6876H26.0118L25.9883 17.3554C25.9493 16.0625 25.7501 15.3086 25.2383 14.5351C24.5079 13.4336 23.4883 12.8593 21.9961 12.7187C21.5118 12.6757 21.3204 12.6757 20.8438 12.7226ZM21.9805 14.6875C22.5352 14.8086 23.0508 15.1797 23.2657 15.625C23.3907 15.8828 23.5001 16.2617 23.5001 16.4375V16.5468H21.4493H19.3985L19.4219 16.4375C19.4883 16.1289 19.6133 15.7695 19.7188 15.5781C19.879 15.2968 20.1954 14.9765 20.4376 14.8554C20.8399 14.6523 21.4805 14.582 21.9805 14.6875Z" fill="black"/>
</g>
<rect x="0.48" y="0.48" width="31.04" height="31.04" rx="15.52" stroke="black" stroke-width="0.96"/>
<defs>
<clipPath id="clip0_1624_56548">
<rect width="20" height="20" fill="white" transform="translate(6 6)"/>
</clipPath>
</defs>
</svg>
