<svg width="43" height="43" viewBox="0 0 43 43" fill="none" xmlns="http://www.w3.org/2000/svg">
<path d="M31.8197 30.4056L12.0207 10.6066C11.6302 10.2161 10.997 10.2161 10.6065 10.6066C10.216 10.9971 10.216 11.6303 10.6065 12.0208L30.4055 31.8198C30.796 32.2103 31.4292 32.2103 31.8197 31.8198C32.2102 31.4293 32.2102 30.7961 31.8197 30.4056Z" fill="#657076" stroke="#657076"/>
<path d="M30.7989 10.9999L10.9999 30.7988C10.6094 31.1894 10.6094 31.8225 10.9999 32.2131C11.3904 32.6036 12.0236 32.6036 12.4141 32.2131L32.2131 12.4141C32.6037 12.0235 32.6037 11.3904 32.2131 10.9999C31.8226 10.6093 31.1894 10.6093 30.7989 10.9999Z" fill="#657076" stroke="#657076"/>
</svg>
