<?xml version="1.0" standalone="no"?>
<!DOCTYPE svg PUBLIC "-//W3C//DTD SVG 20010904//EN"
 "http://www.w3.org/TR/2001/REC-SVG-20010904/DTD/svg10.dtd">
<svg version="1.0" xmlns="http://www.w3.org/2000/svg"
 width="512.000000pt" height="512.000000pt" viewBox="0 0 512.000000 512.000000"
 preserveAspectRatio="xMidYMid meet">

<g transform="translate(0.000000,512.000000) scale(0.100000,-0.100000)"
fill="#000000" stroke="none">
<path d="M2330 5110 c-493 -48 -951 -231 -1350 -538 -109 -84 -348 -323 -432
-432 -213 -276 -366 -580 -453 -897 -217 -791 -54 -1606 453 -2263 84 -109
323 -348 432 -432 490 -378 1074 -569 1665 -544 138 6 352 29 360 38 2 2 -36
227 -39 235 -1 1 -51 -5 -111 -13 -146 -20 -458 -20 -595 0 -445 64 -821 227
-1160 500 -465 376 -762 917 -840 1526 -16 122 -16 418 0 540 104 817 608
1505 1344 1838 311 141 613 205 961 204 436 0 847 -115 1205 -337 223 -139
317 -222 667 -587 l274 -288 -405 0 -406 0 0 -125 0 -125 610 0 610 0 0 610 0
610 -120 0 -120 0 0 -397 0 -398 -52 55 c-217 231 -551 568 -619 627 -363 307
-798 503 -1289 578 -122 19 -465 28 -590 15z"/>
<path d="M2440 3318 l0 -823 -447 -447 -448 -448 88 -87 87 -88 480 480 480
480 0 877 0 878 -120 0 -120 0 0 -822z"/>
<path d="M4945 2867 l-80 -9 0 -298 0 -297 117 -15 117 -14 8 76 c10 94 10
413 -1 503 l-8 67 -36 -1 c-20 -1 -73 -6 -117 -12z"/>
<path d="M4687 1647 c-36 -89 -117 -237 -190 -350 -40 -61 -66 -112 -61 -116
22 -20 178 -131 185 -131 18 0 159 230 235 384 46 94 82 171 81 172 -1 1 -53
23 -115 48 l-114 45 -21 -52z"/>
<path d="M3985 734 c-59 -50 -262 -180 -358 -229 -53 -27 -97 -53 -97 -57 0
-4 21 -54 47 -112 l46 -105 108 55 c162 83 438 263 439 287 0 8 -139 181 -149
184 -3 1 -19 -9 -36 -23z"/>
</g>
</svg>
