<svg width="32" height="32" viewBox="0 0 32 32" fill="none" xmlns="http://www.w3.org/2000/svg">
<g clip-path="url(#clip0_1624_56528)">
<path d="M15.0097 3.03047C13.659 3.17773 12.8363 3.34023 11.8765 3.66523C8.02224 4.95 4.94998 8.02226 3.66521 11.8766C2.65466 14.893 2.81209 18.3512 4.09177 21.2406C5.92498 25.3793 9.73865 28.2535 14.2226 28.8832C15.0961 29.0051 16.9039 29.0051 17.7773 28.8832C21.9414 28.2992 25.4656 25.8363 27.4918 22.0937C29.132 19.057 29.4519 15.2129 28.3398 11.8816C26.7758 7.21484 22.6777 3.79726 17.8281 3.12695C17.2644 3.05078 15.4261 2.98476 15.0097 3.03047ZM17.5336 5.01094C19.5394 5.275 21.3219 6.0418 22.8808 7.30625C23.1043 7.48906 23.2922 7.64141 23.3023 7.65156C23.3886 7.7125 22.3832 8.78398 21.7383 9.31719C20.8547 10.0535 19.448 10.8812 18.209 11.4043C17.9043 11.5363 17.625 11.6531 17.5945 11.6633C17.564 11.6785 17.3355 11.3281 17.0918 10.8863C16.198 9.2918 14.9386 7.33164 13.9586 6.00625C13.6793 5.63555 13.4406 5.29531 13.4304 5.25976C13.4152 5.21914 13.466 5.18867 13.5726 5.16836C13.664 5.15312 13.9586 5.10234 14.2226 5.05664C15.2281 4.8789 16.4164 4.86367 17.5336 5.01094ZM11.6734 6.52929C12.9785 8.3168 15.482 12.3184 15.3246 12.3691C15.289 12.3793 14.9894 12.4605 14.6543 12.5418C12.5011 13.0699 10.4242 13.4051 8.18982 13.5879C7.23006 13.6641 5.13279 13.7453 5.13279 13.7047C5.13279 13.5727 5.53396 12.293 5.71677 11.8359C6.50388 9.8707 7.96638 8.05273 9.69802 6.86445C10.2719 6.47344 11.1301 5.99101 11.2265 6.00625C11.2672 6.01641 11.4652 6.25 11.6734 6.52929ZM24.8969 9.35781C26.2527 11.1707 26.9484 13.1207 27.0906 15.5023C27.1109 15.8934 27.1211 15.8832 26.6844 15.802C25.4351 15.5633 24.0996 15.4414 22.4746 15.4059C21.1492 15.3805 19.6562 15.4363 19.4328 15.5227C19.3871 15.5379 19.3261 15.4465 19.25 15.2535C19.184 15.091 18.9656 14.5934 18.7574 14.1516C18.5543 13.7047 18.3918 13.3391 18.3969 13.334C18.407 13.3289 18.666 13.2172 18.9707 13.0801C20.0472 12.6078 21.4082 11.8105 22.3324 11.1199C22.9875 10.6273 23.9117 9.77422 24.257 9.34258C24.4144 9.14961 24.5617 8.99219 24.582 8.99219C24.6023 8.99219 24.7445 9.15977 24.8969 9.35781ZM16.7414 14.9641C16.9801 15.4516 17.1679 15.8781 17.1578 15.9086C17.1476 15.9391 16.8633 16.0559 16.5281 16.1777C15.1011 16.6703 12.8363 17.9703 11.4347 19.1027C10.15 20.1336 8.77381 21.6977 7.97654 23.023L7.73787 23.4141L7.43826 23.0484C6.19412 21.525 5.39177 19.773 5.05662 17.8535C4.96521 17.3152 4.86873 16 4.91443 15.7918L4.9449 15.6445H5.50857C7.1031 15.6445 9.7742 15.4211 11.582 15.1316C12.9074 14.9234 14.7711 14.5121 15.8222 14.2023C16.0457 14.1363 16.2488 14.0805 16.2691 14.0754C16.2945 14.0703 16.5078 14.4715 16.7414 14.9641ZM23.8761 17.168C24.8918 17.2695 26.8722 17.6605 26.9433 17.7723C26.984 17.8484 26.7554 18.8184 26.5371 19.4785C25.8211 21.6672 24.4195 23.5867 22.5254 24.9883C22.3679 25.1051 22.2308 25.1914 22.2207 25.1812C22.2105 25.1762 22.1344 24.8004 22.0429 24.3535C21.6875 22.566 21.0781 20.3266 20.3926 18.2852C20.2097 17.7418 20.0625 17.2949 20.0625 17.2898C20.0625 17.2695 20.4789 17.2086 20.8445 17.168C21.398 17.1121 23.2922 17.1121 23.8761 17.168ZM18.407 19.0316C18.9148 20.4637 19.3363 21.8602 19.6969 23.2871C19.9304 24.2062 20.3164 26.0039 20.3164 26.1715C20.3164 26.3289 18.6101 26.8316 17.5234 26.9941C16.8328 27.1008 15.4058 27.1109 14.6797 27.0246C13.0293 26.8215 11.5465 26.3035 10.1855 25.4555C9.70818 25.1559 9.19529 24.7902 9.19529 24.7496C9.19529 24.6582 9.70818 23.7746 9.97224 23.4039C11.3535 21.4793 13.4304 19.8746 16.3808 18.4578C16.9344 18.1887 17.9347 17.7723 17.9601 17.7977C17.9652 17.7977 18.1683 18.3562 18.407 19.0316Z" fill="black"/>
</g>
<rect x="0.48" y="0.48" width="31.04" height="31.04" rx="15.52" stroke="black" stroke-width="0.96"/>
<defs>
<clipPath id="clip0_1624_56528">
<rect width="26" height="26" fill="white" transform="translate(3 3)"/>
</clipPath>
</defs>
</svg>
