<svg width="32" height="33" viewBox="0 0 32 33" fill="none" xmlns="http://www.w3.org/2000/svg">
<path opacity="0.993" fill-rule="evenodd" clip-rule="evenodd" d="M9.97074 8.14982C10.5323 8.11775 11.0718 8.21253 11.5895 8.43419C12.1956 8.70075 12.779 8.99972 13.3395 9.33107C15.279 8.86513 17.2186 8.86513 19.1582 9.33107C19.7493 8.98446 20.3618 8.67092 20.9957 8.39044C21.4735 8.1796 21.9693 8.11397 22.4832 8.19357C22.8902 9.1928 22.9339 10.2063 22.6145 11.2342C23.6152 12.4143 24.0017 13.7778 23.7739 15.3248C23.611 17.6013 22.4516 19.096 20.2957 19.8092C19.6901 19.9782 19.0776 20.1094 18.4582 20.2029C18.895 20.676 19.1357 21.2375 19.1801 21.8873C19.1947 23.1706 19.2093 24.454 19.2239 25.7373C19.2786 25.8634 19.3734 25.9436 19.5082 25.9779C19.6663 26.0193 19.8268 26.0485 19.9895 26.0654C17.4957 26.0946 15.002 26.0946 12.5082 26.0654C12.7076 26.0607 12.8971 26.0169 13.077 25.9342C13.178 25.8626 13.2437 25.7678 13.2739 25.6498C13.303 24.9498 13.303 24.2498 13.2739 23.5498C12.5554 23.7144 11.8335 23.7217 11.1082 23.5717C10.4979 23.4018 9.9948 23.0737 9.59886 22.5873C9.37232 22.1926 9.16814 21.7842 8.98636 21.3623C8.84053 21.1581 8.69469 20.954 8.54886 20.7498C8.21344 20.4728 7.87803 20.1956 7.54261 19.9186C7.48958 19.7727 7.52604 19.6633 7.65199 19.5904C8.53883 19.4905 9.24611 19.804 9.77386 20.5311C10.5894 21.9672 11.7634 22.3609 13.2957 21.7123C13.3909 21.1411 13.6243 20.638 13.9957 20.2029C10.2565 19.8057 8.48466 17.7276 8.68011 13.9686C8.76909 12.9275 9.17016 12.0306 9.88324 11.2779C9.61369 10.5434 9.56264 9.79237 9.73011 9.02482C9.80619 8.73109 9.88639 8.43943 9.97074 8.14982Z" fill="#151515"/>
<rect x="0.48" y="0.98" width="31.04" height="31.04" rx="15.52" stroke="#151515" stroke-width="0.96"/>
</svg>
