<svg width="99" height="32" viewBox="0 0 99 32" fill="none" xmlns="http://www.w3.org/2000/svg">
<path fill-rule="evenodd" clip-rule="evenodd" d="M27.9108 0.0637516C24.056 0.626784 18.8075 3.52953 13.9733 7.78355C13.515 8.19018 13.1635 8.44667 13.0128 8.49047C12.7993 8.55302 12.6298 8.528 11.4935 8.26525C10.0558 7.92743 9.81095 7.92118 9.15174 8.20269C8.83156 8.34658 8.35442 8.79701 4.79472 12.3441C2.59738 14.5337 0.764167 16.4042 0.732776 16.5043C0.65116 16.7107 0.732776 16.9485 0.914842 17.0486C0.983901 17.0861 2.3902 17.3301 4.03507 17.5866C6.21986 17.9306 7.11135 18.0432 7.31853 18.0182C7.72661 17.9557 8.19747 17.768 8.54904 17.5177C8.71855 17.3989 8.91317 17.2988 8.98223 17.2988C9.06385 17.2988 10.219 18.4123 12.2594 20.4393C14.7016 22.8728 15.4173 23.6173 15.4173 23.7361C15.4173 23.8237 15.3169 24.0301 15.1976 24.2053C14.9025 24.6307 14.7267 25.1625 14.7267 25.6066C14.7267 26.032 15.568 31.4434 15.6747 31.7062C15.7563 31.9001 15.907 32.0002 16.1205 32.0002C16.2272 32.0002 17.307 30.9554 20.3331 27.9464C20.442 27.8379 20.5482 27.7323 20.6518 27.6292C24.1375 24.1611 24.613 23.688 24.7165 23.1441C24.7329 23.0582 24.7399 22.9705 24.7481 22.8689C24.7496 22.8499 24.7512 22.8303 24.7529 22.8102C24.7843 22.4537 24.7466 22.2222 24.5269 21.3213C24.3888 20.7333 24.2695 20.1515 24.2695 20.0264C24.2695 19.8324 24.3574 19.7073 25.0103 18.9754C28.6955 14.8402 31.4203 10.1921 32.4059 6.3572C32.9082 4.40536 32.8956 2.94773 32.362 1.79664C31.9727 0.958348 31.2759 0.382803 30.3279 0.126311C29.8068 -0.0113197 28.639 -0.0425964 27.9108 0.0637516ZM25.6695 4.75569C26.2471 4.87455 26.7996 5.18109 27.2516 5.63151C29.0911 7.4645 28.2059 10.6112 25.6758 11.2055C24.8596 11.3995 23.8237 11.2306 23.1457 10.7989C21.6892 9.86677 21.1806 8.05255 21.9466 6.50734C22.6309 5.11227 24.1 4.42412 25.6695 4.75569ZM38.5457 0.000327725H36.6214V32.0003H38.5457V0.000327725ZM43.4155 4.06291V12.2802H45.3055V5.61245H49.015V12.2802H50.905V4.06291H43.4155ZM54.7146 8.85242V10.7541H59.1872V12.2802H52.8246V4.06291H59.0346V5.58898H54.7146V7.3733H58.5298V8.85242H54.7146ZM60.6058 4.06291V12.2802H62.5076V10.0146H64.1627C64.8984 10.0146 65.5323 9.89719 66.0645 9.66241C66.5966 9.4198 67.0075 9.07546 67.2971 8.62938C67.5866 8.18329 67.7314 7.65504 67.7314 7.04461C67.7314 6.42636 67.5866 5.89419 67.2971 5.44811C67.0075 5.00203 66.5966 4.6616 66.0645 4.42682C65.5323 4.18421 64.8984 4.06291 64.1627 4.06291H60.6058ZM62.5076 8.46503H64.0571C64.644 8.46503 65.0823 8.33981 65.3719 8.08938C65.6614 7.83895 65.8062 7.49069 65.8062 7.04461C65.8062 6.5907 65.6614 6.23853 65.3719 5.9881C65.0823 5.73767 64.644 5.61245 64.0571 5.61245H62.5076V8.46503ZM68.8685 4.06291V12.2802H72.9185C73.9593 12.2802 74.7498 12.0767 75.2898 11.6698C75.8376 11.255 76.1115 10.6876 76.1115 9.96762C76.1115 9.27111 75.8571 8.73894 75.3485 8.37112C75.1292 8.21256 74.8713 8.08818 74.575 7.99797C74.7175 7.92992 74.8501 7.85083 74.9728 7.76069C75.4737 7.38504 75.7241 6.8607 75.7241 6.18766C75.7241 5.5068 75.458 4.98246 74.9258 4.61464C74.3937 4.24682 73.6502 4.06291 72.6954 4.06291H68.8685ZM72.848 10.8715H70.7585V8.79372H72.848C73.2863 8.79372 73.6189 8.87981 73.8459 9.05198C74.0728 9.21633 74.1863 9.47067 74.1863 9.81501C74.1863 10.175 74.0728 10.4411 73.8459 10.6133C73.6189 10.7854 73.2863 10.8715 72.848 10.8715ZM72.5311 7.46722H70.7585V5.47159H72.5311C72.9459 5.47159 73.2589 5.55767 73.4702 5.72984C73.6815 5.89419 73.7872 6.14071 73.7872 6.4694C73.7872 6.79809 73.6815 7.04852 73.4702 7.2207C73.2589 7.38504 72.9459 7.46722 72.5311 7.46722ZM83.7784 7.432C83.2384 6.98592 82.4715 6.76288 81.4776 6.76288H79.388V4.06291H77.4981V12.2802H81.2076C82.2641 12.2802 83.0897 12.0376 83.6845 11.5524C84.2871 11.0672 84.5884 10.355 84.5884 9.41589C84.5884 8.53155 84.3184 7.87025 83.7784 7.432ZM82.2524 10.5076C81.9706 10.7502 81.5871 10.8715 81.1019 10.8715H79.388V8.17155H81.1019C81.595 8.17155 81.9784 8.27329 82.2524 8.47677C82.5341 8.67242 82.675 8.9972 82.675 9.45111C82.675 9.91284 82.5341 10.265 82.2524 10.5076ZM87.5232 4.06291H85.6332V12.2802H87.5232V4.06291ZM91.3421 4.06291H89.4521V12.2802H91.2482L95.169 6.93896V12.2802H97.0472V4.06291H95.2629L91.3421 9.41589V4.06291ZM91.5182 3.06509C91.886 3.37813 92.4612 3.53465 93.2438 3.53465C94.0186 3.53465 94.5899 3.37813 94.9577 3.06509C95.3255 2.75205 95.5133 2.30988 95.5212 1.73859H94.2182C94.2103 2.02032 94.1242 2.23554 93.9599 2.38423C93.7955 2.5251 93.5568 2.59553 93.2438 2.59553C92.9229 2.59553 92.6803 2.5251 92.516 2.38423C92.3595 2.23554 92.2773 2.02032 92.2695 1.73859H90.9664C90.9743 2.30988 91.1582 2.75205 91.5182 3.06509ZM45.5286 26.1159C46.0764 26.3193 46.6673 26.4211 47.3012 26.4211C48.0211 26.4211 48.6668 26.2959 49.2381 26.0454C49.8172 25.795 50.3024 25.4311 50.6937 24.9537L49.4729 23.8268C49.1911 24.1554 48.8781 24.402 48.5337 24.5663C48.1894 24.7228 47.8138 24.8011 47.4068 24.8011C47.0233 24.8011 46.6712 24.7385 46.3503 24.6133C46.0294 24.488 45.7516 24.3081 45.5168 24.0733C45.282 23.8385 45.0981 23.5607 44.9651 23.2398C44.8399 22.9189 44.7773 22.5629 44.7773 22.1716C44.7773 21.7803 44.8399 21.4242 44.9651 21.1033C45.0981 20.7824 45.282 20.5046 45.5168 20.2698C45.7516 20.0351 46.0294 19.8551 46.3503 19.7298C46.6712 19.6046 47.0233 19.542 47.4068 19.542C47.8138 19.542 48.1894 19.6242 48.5337 19.7885C48.8781 19.9451 49.1911 20.1838 49.4729 20.5046L50.6937 19.3777C50.3024 18.9003 49.8172 18.5403 49.2381 18.2977C48.6668 18.0473 48.0251 17.922 47.3129 17.922C46.6712 17.922 46.0803 18.0277 45.5403 18.239C45.0003 18.4425 44.5268 18.7359 44.1199 19.1194C43.7208 19.5029 43.4077 19.9529 43.1808 20.4694C42.9616 20.9859 42.8521 21.5533 42.8521 22.1716C42.8521 22.7898 42.9616 23.3572 43.1808 23.8737C43.4077 24.3902 43.7208 24.8402 44.1199 25.2237C44.519 25.6072 44.9886 25.9046 45.5286 26.1159ZM53.5081 19.6125V26.2802H55.3864V19.6125H58.0159V18.0629H50.8903V19.6125H53.5081ZM63.2933 18.0629H61.4151L57.7525 26.2802H59.7012L60.4335 24.5194H64.2426L64.972 26.2802H66.9676L63.2933 18.0629ZM63.6445 23.0755L62.3417 19.9306L61.0339 23.0755H63.6445ZM71.4969 18.0629H67.94V26.2802H69.8417V24.0146H71.4969C72.2325 24.0146 72.8664 23.8972 73.3986 23.6624C73.9308 23.4198 74.3416 23.0755 74.6312 22.6294C74.9207 22.1833 75.0655 21.655 75.0655 21.0446C75.0655 20.4264 74.9207 19.8942 74.6312 19.4481C74.3416 19.002 73.9308 18.6616 73.3986 18.4268C72.8664 18.1842 72.2325 18.0629 71.4969 18.0629ZM69.8417 22.465H71.3912C71.9782 22.465 72.4164 22.3398 72.706 22.0894C72.9955 21.8389 73.1403 21.4907 73.1403 21.0446C73.1403 20.5907 72.9955 20.2385 72.706 19.9881C72.4164 19.7377 71.9782 19.6125 71.3912 19.6125H69.8417V22.465ZM77.746 19.6125V26.2802H79.6242V19.6125H82.2537V18.0629H75.1282V19.6125H77.746ZM6.67197 22.147C7.16794 21.3963 7.85226 20.5267 8.19755 20.2139C8.48007 19.9637 8.51146 19.9511 8.75003 20.0763C9.03882 20.2327 12.768 24.005 12.812 24.1927C12.8685 24.4179 12.8371 24.4617 12.2156 25.0309C10.9599 26.1883 10.307 26.5574 7.87737 27.5145C6.96076 27.8774 5.75536 28.3904 5.20289 28.6469C4.16072 29.1348 3.9661 29.1911 3.90331 29.0222C3.60824 28.2527 5.09616 24.5492 6.67197 22.147Z" fill="#FEF6F0"/>
</svg>
