<svg width="1440" height="587" viewBox="0 0 1440 587" fill="none" xmlns="http://www.w3.org/2000/svg">
<rect width="1440" height="587" fill="#1977F2"/>
<path d="M0 0V461.289C35.7065 440.058 35.7065 440.058 88.7837 437.163C141.861 434.268 168.882 401.457 183.358 358.03C190.541 336.481 196.277 317.498 211.344 296.267C232.575 266.351 288.225 240.295 319.428 229.68C340.016 223.889 388.718 196.868 418.827 135.106C456.464 57.9024 493.136 60.7975 544.283 54.0422C585.2 48.638 615.374 15.7623 625.346 0H0Z" fill="#FE6512"/>
<path d="M0 0V441.023C70.4479 406.282 75.2731 347.414 76.2382 330.044C77.5359 306.684 67.5528 291.442 62.7276 276.966C53.9131 250.523 59.6395 185.867 112.91 153.441C179.497 112.91 175.637 59.8325 175.637 45.3569C175.637 21.2309 169.525 8.042 165.987 0H0Z" fill="#FBBC1D"/>
</svg>
