<svg width="1440" height="587" viewBox="0 0 1440 587" fill="none" xmlns="http://www.w3.org/2000/svg">
<rect width="1440" height="587" transform="translate(1440 587) rotate(-180)" fill="#1977F2"/>
<path d="M1440 587V125.711C1404.29 146.942 1404.29 146.942 1351.22 149.837C1298.14 152.732 1271.12 185.543 1256.64 228.97C1249.46 250.519 1243.72 269.502 1228.66 290.733C1207.43 320.649 1151.77 346.705 1120.57 357.32C1099.98 363.111 1051.28 390.132 1021.17 451.894C983.536 529.098 946.864 526.202 895.717 532.958C854.8 538.362 824.626 571.238 814.654 587H1440Z" fill="#FBBC1D"/>
<path d="M1440 587V145.977C1369.55 180.718 1364.73 239.586 1363.76 256.956C1362.46 280.316 1372.45 295.558 1377.27 310.034C1386.09 336.477 1380.36 401.133 1327.09 433.559C1260.5 474.09 1264.36 527.168 1264.36 541.643C1264.36 565.769 1270.47 578.958 1274.01 587H1440Z" fill="#FE6512"/>
</svg>
