<svg width="197" height="64" viewBox="0 0 197 64" fill="none" xmlns="http://www.w3.org/2000/svg">
<path fill-rule="evenodd" clip-rule="evenodd" d="M76.1889 0H72.3403V64H76.1889V0ZM85.989 8.63985V25.56H89.8807V11.8305H97.5189V25.56H101.411V8.63985H85.989ZM109.255 18.5019V22.4177H118.464V25.56H105.363V8.63985H118.15V11.7822H109.255V15.4563H117.111V18.5019H109.255ZM121.385 8.63985V25.56H125.301V20.8949H128.709C130.224 20.8949 131.529 20.6532 132.625 20.1697C133.721 19.6702 134.567 18.9611 135.163 18.0426C135.759 17.1241 136.058 16.0364 136.058 14.7794C136.058 13.5064 135.759 12.4106 135.163 11.4921C134.567 10.5736 133.721 9.87261 132.625 9.38917C131.529 8.88963 130.224 8.63985 128.709 8.63985H121.385ZM125.301 17.7042H128.492C129.7 17.7042 130.603 17.4464 131.199 16.9307C131.795 16.4151 132.093 15.698 132.093 14.7794C132.093 13.8448 131.795 13.1197 131.199 12.604C130.603 12.0883 129.7 11.8305 128.492 11.8305H125.301V17.7042ZM138.399 8.63985V25.56H146.738C148.881 25.56 150.509 25.141 151.621 24.3031C152.749 23.449 153.313 22.2807 153.313 20.7982C153.313 19.364 152.789 18.2682 151.742 17.5108C151.29 17.1844 150.759 16.9282 150.149 16.7425C150.442 16.6024 150.715 16.4395 150.968 16.2539C152 15.4804 152.515 14.4008 152.515 13.0149C152.515 11.613 151.967 10.5333 150.872 9.77592C149.776 9.01854 148.245 8.63985 146.279 8.63985H138.399ZM146.593 22.6594H142.291V18.381H146.593C147.496 18.381 148.18 18.5583 148.648 18.9128C149.115 19.2512 149.349 19.7749 149.349 20.484C149.349 21.2252 149.115 21.7731 148.648 22.1276C148.18 22.4821 147.496 22.6594 146.593 22.6594ZM145.941 15.6496H142.291V11.5404H145.941C146.795 11.5404 147.439 11.7177 147.874 12.0722C148.309 12.4106 148.527 12.9182 148.527 13.595C148.527 14.2718 148.309 14.7875 147.874 15.142C147.439 15.4804 146.795 15.6496 145.941 15.6496ZM169.1 15.5771C167.988 14.6586 166.409 14.1993 164.362 14.1993H160.06V8.63985H156.168V25.56H163.806C165.982 25.56 167.682 25.0604 168.906 24.0614C170.147 23.0623 170.768 21.5958 170.768 19.6621C170.768 17.8412 170.212 16.4795 169.1 15.5771ZM165.957 21.9101C165.377 22.4096 164.588 22.6594 163.589 22.6594H160.06V17.0999H163.589C164.604 17.0999 165.393 17.3094 165.957 17.7284C166.538 18.1312 166.828 18.8 166.828 19.7346C166.828 20.6854 166.538 21.4105 165.957 21.9101ZM176.811 8.63985H172.919V25.56H176.811V8.63985ZM184.674 8.63985H180.782V25.56H184.481L192.554 14.5619V25.56H196.421V8.63985H192.747L184.674 19.6621V8.63985ZM185.037 6.58527C185.794 7.22984 186.978 7.55213 188.59 7.55213C190.185 7.55213 191.362 7.22984 192.119 6.58527C192.876 5.94069 193.263 5.03022 193.279 3.85387H190.596C190.58 4.43399 190.403 4.87714 190.064 5.18331C189.726 5.47337 189.234 5.6184 188.59 5.6184C187.929 5.6184 187.43 5.47337 187.091 5.18331C186.769 4.87714 186.6 4.43399 186.584 3.85387H183.901C183.917 5.03022 184.295 5.94069 185.037 6.58527ZM90.3399 54.2216C91.4679 54.6406 92.6846 54.8501 93.9898 54.8501C95.4724 54.8501 96.8018 54.5922 97.9782 54.0766C99.1706 53.5609 100.17 52.8116 100.975 51.8286L98.4616 49.5081C97.8815 50.1849 97.2369 50.6925 96.5279 51.0309C95.8188 51.3532 95.0453 51.5144 94.2074 51.5144C93.4178 51.5144 92.6926 51.3855 92.0319 51.1276C91.3713 50.8698 90.7992 50.4992 90.3158 50.0157C89.8323 49.5323 89.4536 48.9602 89.1797 48.2995C88.9219 47.6389 88.7929 46.9056 88.7929 46.0999C88.7929 45.2942 88.9219 44.561 89.1797 43.9003C89.4536 43.2396 89.8323 42.6676 90.3158 42.1841C90.7992 41.7007 91.3713 41.3301 92.0319 41.0722C92.6926 40.8144 93.4178 40.6855 94.2074 40.6855C95.0453 40.6855 95.8188 40.8547 96.5279 41.1931C97.2369 41.5154 97.8815 42.0069 98.4616 42.6676L100.975 40.3471C100.17 39.3641 99.1706 38.6228 97.9782 38.1233C96.8018 37.6076 95.4804 37.3498 94.014 37.3498C92.6926 37.3498 91.476 37.5673 90.3641 38.0024C89.2522 38.4214 88.2773 39.0257 87.4393 39.8153C86.6175 40.6049 85.9729 41.5315 85.5056 42.595C85.0544 43.6586 84.8288 44.8269 84.8288 46.0999C84.8288 47.373 85.0544 48.5413 85.5056 49.6048C85.9729 50.6684 86.6175 51.5949 87.4393 52.3845C88.2612 53.1742 89.228 53.7865 90.3399 54.2216ZM106.771 40.8305V54.56H110.638V40.8305H116.052V37.6399H101.38V40.8305H106.771ZM126.919 37.6399H123.052L115.51 54.56H119.523L121.03 50.9342H128.874L130.376 54.56H134.485L126.919 37.6399ZM127.642 47.9611L124.96 41.4856L122.267 47.9611H127.642ZM143.811 37.6399H136.487V54.56H140.403V49.8949H143.811C145.326 49.8949 146.631 49.6532 147.727 49.1697C148.823 48.6702 149.669 47.9611 150.265 47.0426C150.861 46.1241 151.159 45.0364 151.159 43.7794C151.159 42.5064 150.861 41.4106 150.265 40.4921C149.669 39.5736 148.823 38.8726 147.727 38.3892C146.631 37.8896 145.326 37.6399 143.811 37.6399ZM140.403 46.7042H143.593C144.802 46.7042 145.704 46.4464 146.301 45.9307C146.897 45.4151 147.195 44.698 147.195 43.7794C147.195 42.8448 146.897 42.1197 146.301 41.604C145.704 41.0883 144.802 40.8305 143.593 40.8305H140.403V46.7042ZM156.702 40.8305V54.56H160.569V40.8305H165.984V37.6399H151.312V40.8305H156.702ZM54.9193 0.127148C47.2098 1.25321 36.7128 7.0587 27.0445 15.5667C26.1279 16.38 25.4247 16.893 25.1234 16.9806C24.6964 17.1057 24.3574 17.0556 22.0847 16.5302C19.2094 15.8545 18.7197 15.842 17.4013 16.405C16.7609 16.6928 15.8066 17.5937 8.68723 24.6879C4.29254 29.067 0.626112 32.808 0.56333 33.0082C0.400099 33.4211 0.56333 33.8966 0.927462 34.0967C1.06558 34.1718 3.87818 34.6598 7.16792 35.1728C11.5375 35.8609 13.3205 36.0861 13.7348 36.0361C14.551 35.911 15.4927 35.5356 16.1959 35.0351C16.5349 34.7974 16.9241 34.5972 17.0622 34.5972C17.2255 34.5972 19.5358 36.8243 23.6166 40.8782C28.501 45.7453 29.9324 47.2342 29.9324 47.4719C29.9324 47.6471 29.7315 48.0599 29.4929 48.4103C28.9028 49.2611 28.5512 50.3246 28.5512 51.2129C28.5512 52.0637 30.2338 62.8865 30.4472 63.412C30.6104 63.7998 30.9118 64 31.3387 64C31.5522 64 33.7118 61.9105 39.7639 55.8923C39.9818 55.6755 40.1943 55.4642 40.4014 55.2581C47.3728 48.3219 48.3238 47.3756 48.5308 46.2878C48.5635 46.1159 48.5776 45.9406 48.594 45.7375C48.597 45.6994 48.6002 45.6603 48.6035 45.6201C48.6663 44.907 48.591 44.444 48.1515 42.6423C47.8753 41.4662 47.6367 40.3026 47.6367 40.0524C47.6367 39.6645 47.8125 39.4143 49.1184 37.9504C56.4889 29.6801 61.9383 20.3838 63.9096 12.714C64.9141 8.81036 64.889 5.8951 63.8217 3.59293C63.0432 1.91634 61.6495 0.765251 59.7535 0.252266C58.7113 -0.022995 56.3759 -0.0855484 54.9193 0.127148ZM50.4368 9.51102C51.5919 9.74874 52.6969 10.3618 53.6009 11.2627C57.2799 14.9286 55.5095 21.2221 50.4493 22.4107C48.817 22.7986 46.7452 22.4608 45.3891 21.5974C42.4761 19.7332 41.459 16.1047 42.9909 13.0143C44.3595 10.2242 47.2977 8.84789 50.4368 9.51102ZM12.4417 44.2939C13.4337 42.7925 14.8023 41.0534 15.4929 40.4278C16.0579 39.9273 16.1207 39.9023 16.5978 40.1525C17.1754 40.4653 24.6338 48.0099 24.7217 48.3853C24.8347 48.8357 24.772 48.9233 23.5289 50.0619C21.0176 52.3766 19.7118 53.1148 14.8525 55.0291C13.0193 55.7548 10.6085 56.7807 9.50356 57.2937C7.41922 58.2696 7.02998 58.3822 6.90442 58.0444C6.31427 56.5055 9.29011 49.0985 12.4417 44.2939Z" fill="black"/>
</svg>
