<svg width="19" height="18" viewBox="0 0 19 18" fill="none" xmlns="http://www.w3.org/2000/svg">
<path opacity="0.995" fill-rule="evenodd" clip-rule="evenodd" d="M8.75098 0.717662C11.3048 0.631603 13.1739 1.70973 14.3584 3.95204C14.61 4.51313 14.7741 5.09908 14.8506 5.70985C14.8623 7.38564 14.874 9.0614 14.8858 10.7372C15.3193 11.3817 15.753 12.0263 16.1865 12.6708C16.5452 13.445 16.4104 14.1189 15.7822 14.6923C15.5804 14.8338 15.3578 14.9276 15.1143 14.9735C11.2002 14.997 7.28613 14.997 3.37207 14.9735C2.57209 14.777 2.15021 14.2673 2.10645 13.4442C2.11968 13.1291 2.20757 12.8361 2.37012 12.5653C2.78028 11.956 3.19043 11.3466 3.60059 10.7372C3.6123 9.0614 3.62403 7.38564 3.63574 5.70985C3.9679 3.50344 5.15734 1.96243 7.20411 1.0868C7.71008 0.90258 8.22571 0.779533 8.75098 0.717662Z" fill="#FEF6F0"/>
<path opacity="0.975" fill-rule="evenodd" clip-rule="evenodd" d="M7.09888 15.768C8.52264 15.7271 9.95234 15.7212 11.3879 15.7504C10.7982 17.012 9.82556 17.469 8.46997 17.1215C7.81891 16.863 7.36188 16.4119 7.09888 15.768Z" fill="#FEF6F0"/>
</svg>
