<svg width="19" height="18" viewBox="0 0 19 18" fill="none" xmlns="http://www.w3.org/2000/svg">
<g clip-path="url(#clip0_1587_51035)">
<path opacity="0.993" fill-rule="evenodd" clip-rule="evenodd" d="M8.61696 0.544277C12.2086 0.385568 14.9332 1.82697 16.7908 4.8685C17.8949 6.95368 18.1293 9.13337 17.4939 11.4076C16.5235 14.3584 14.5489 16.2744 11.5701 17.1556C9.0639 17.7624 6.73775 17.3581 4.59157 15.9427C3.51017 16.3071 2.42618 16.6645 1.33962 17.015C1.01561 17.0423 0.892559 16.8958 0.970476 16.5755C1.34316 15.4634 1.7123 14.3501 2.0779 13.2357C0.903212 11.1187 0.639541 8.89213 1.28688 6.556C2.30351 3.49576 4.37188 1.55631 7.49196 0.737636C7.87 0.661172 8.24501 0.59672 8.61696 0.544277ZM6.3318 8.17318C6.8409 8.09647 7.18659 8.2957 7.36891 8.77084C7.44197 9.26007 7.24861 9.59406 6.78884 9.77279C6.18795 9.84149 5.83638 9.57782 5.73415 8.98178C5.7891 8.59956 5.98833 8.33005 6.3318 8.17318ZM9.17946 8.17318C9.67495 8.10727 10.0089 8.3065 10.1814 8.77084C10.2646 9.26675 10.0712 9.60074 9.60134 9.77279C9.10542 9.85597 8.77144 9.66261 8.59938 9.19271C8.5206 8.69367 8.71396 8.35382 9.17946 8.17318ZM11.9568 8.17318C12.4659 8.09647 12.8116 8.2957 12.9939 8.77084C13.067 9.26007 12.8736 9.59406 12.4138 9.77279C11.8129 9.84145 11.4613 9.57778 11.3591 8.98178C11.413 8.60044 11.6122 8.33089 11.9568 8.17318Z" fill="#FDF5EF"/>
</g>
<defs>
<clipPath id="clip0_1587_51035">
<rect width="18" height="18" fill="white" transform="translate(0.408691)"/>
</clipPath>
</defs>
</svg>
