<?xml version="1.0" standalone="no"?>
<!DOCTYPE svg PUBLIC "-//W3C//DTD SVG 20010904//EN"
 "http://www.w3.org/TR/2001/REC-SVG-20010904/DTD/svg10.dtd">
<svg version="1.0" xmlns="http://www.w3.org/2000/svg"
 width="512.000000pt" height="512.000000pt" viewBox="0 0 512.000000 512.000000"
 preserveAspectRatio="xMidYMid meet">

<g transform="translate(0.000000,512.000000) scale(0.100000,-0.100000)"
fill="#000000" stroke="none">
<path d="M745 5102 c-99 -34 -174 -117 -195 -215 -8 -37 -10 -312 -8 -927 3
-871 3 -875 24 -921 28 -60 93 -125 153 -152 38 -18 69 -22 189 -25 l142 -4
35 35 c45 45 47 84 6 129 l-29 33 -131 5 c-126 5 -131 6 -158 33 l-28 27 0
870 0 870 28 27 27 28 2030 0 2030 0 27 -28 28 -27 0 -870 0 -870 -28 -27 -27
-28 -378 -6 c-207 -3 -379 -6 -381 -7 -2 -1 -82 -79 -178 -174 l-174 -172
-167 166 c-92 91 -177 171 -189 177 -15 7 -149 11 -422 11 l-400 0 -19 43
c-45 100 -147 204 -252 257 -59 30 -242 90 -273 90 -33 0 -75 -32 -91 -69 -9
-20 -67 -178 -129 -351 -63 -173 -126 -338 -140 -365 -40 -81 -115 -172 -186
-230 -67 -53 -309 -195 -334 -195 -7 0 -24 11 -36 24 -13 13 -46 35 -74 48
-52 23 -55 23 -432 23 -379 0 -380 0 -433 -24 -70 -31 -137 -107 -157 -175
-13 -46 -15 -176 -13 -987 3 -928 3 -934 24 -980 27 -58 85 -116 143 -143 44
-20 60 -21 436 -21 378 0 391 1 436 21 26 12 64 40 84 62 l38 40 81 -31 c256
-95 273 -97 1141 -97 811 0 802 -1 902 65 139 92 200 290 135 437 l-20 47 55
27 c71 36 145 118 174 192 31 80 32 198 1 266 -12 27 -22 50 -22 51 0 2 24 16
53 33 66 37 122 98 156 171 22 47 26 70 26 146 0 77 -4 98 -27 147 -35 75
-104 148 -172 181 l-54 27 20 52 c28 74 27 184 -3 263 -31 82 -121 172 -204
206 -60 23 -63 24 -498 27 -333 3 -438 6 -434 15 43 114 127 397 133 445 l7
62 345 0 346 0 196 -194 c121 -120 206 -197 223 -201 55 -14 79 4 277 200
l195 194 350 3 c334 3 352 4 396 24 60 28 125 93 153 153 21 46 21 46 21 951
0 905 0 905 -21 951 -28 60 -93 125 -153 153 l-46 21 -2050 2 c-1924 2 -2053
1 -2100 -15z m1501 -1943 c57 -39 102 -93 132 -158 21 -47 25 -71 25 -146 0
-87 -3 -100 -86 -345 -48 -140 -87 -267 -87 -283 0 -18 11 -39 29 -58 l29 -29
494 0 c327 0 506 -4 533 -11 51 -14 100 -65 114 -117 23 -85 -30 -177 -114
-201 -25 -7 -151 -11 -333 -11 l-294 0 -29 -29 c-31 -32 -38 -71 -18 -114 23
-52 23 -52 479 -57 316 -4 431 -8 447 -18 12 -7 35 -29 50 -49 24 -31 28 -46
28 -97 0 -73 -25 -115 -85 -146 -37 -19 -60 -20 -438 -20 -259 0 -410 -4 -430
-11 -53 -18 -79 -88 -52 -140 25 -46 51 -49 367 -49 173 0 314 -4 335 -10 51
-15 105 -79 114 -136 5 -35 1 -53 -17 -91 -28 -54 -60 -81 -115 -93 -21 -5
-173 -10 -337 -10 l-299 0 -29 -29 c-40 -40 -40 -89 0 -133 l29 -33 229 -5
c248 -5 254 -7 299 -66 60 -78 33 -194 -56 -241 l-43 -23 -732 0 c-823 0 -832
1 -1030 72 -60 22 -118 42 -128 45 -16 5 -17 53 -15 866 l3 860 145 80 c231
126 339 218 437 370 58 89 72 122 193 454 l102 282 57 -21 c31 -12 74 -34 97
-49z m-1744 -1653 l3 -635 29 -30 c24 -25 38 -31 71 -31 33 0 47 6 71 31 l29
30 3 635 3 636 125 -4 c124 -3 126 -3 150 -31 l24 -28 0 -910 0 -911 -29 -29
-29 -29 -347 0 -347 0 -29 29 -29 29 0 909 c0 818 2 911 16 931 24 35 48 41
171 41 l112 1 3 -634z"/>
<path d="M583 642 c-69 -10 -98 -114 -47 -166 37 -37 101 -37 138 0 20 21 26
37 26 69 0 65 -51 107 -117 97z"/>
<path d="M1525 4518 c-43 -23 -72 -61 -114 -146 l-44 -89 -89 -12 c-147 -19
-199 -52 -218 -137 -15 -66 6 -112 93 -196 l78 -77 -15 -84 c-22 -115 -21
-157 7 -197 33 -49 70 -72 124 -77 43 -4 58 1 145 46 l98 52 95 -51 c102 -53
141 -60 198 -36 43 18 85 68 93 112 4 21 -1 80 -10 138 l-17 101 76 72 c41 40
80 85 86 100 18 47 13 109 -12 149 -29 47 -81 70 -196 85 l-91 12 -38 80 c-44
92 -74 131 -115 152 -33 18 -105 19 -134 3z m106 -316 c41 -78 83 -107 169
-118 30 -3 59 -9 63 -11 5 -3 -13 -28 -41 -57 -27 -28 -55 -61 -61 -73 -13
-25 -14 -99 -2 -160 5 -24 6 -43 2 -43 -3 0 -33 14 -65 30 -79 40 -133 40
-215 -1 -34 -17 -64 -30 -65 -28 -2 2 1 34 7 70 15 97 5 129 -59 198 -30 33
-51 61 -47 64 4 3 33 8 63 12 86 11 132 43 171 120 19 36 36 65 39 65 3 0 21
-31 41 -68z"/>
<path d="M2782 4510 c-35 -22 -71 -73 -115 -166 l-29 -60 -105 -16 c-113 -17
-142 -31 -180 -88 -25 -36 -31 -106 -12 -143 6 -12 45 -56 86 -98 l75 -77 -17
-101 c-9 -56 -14 -118 -11 -136 8 -43 50 -94 93 -111 57 -24 96 -17 198 36
l95 50 102 -51 c88 -44 108 -50 145 -46 54 6 106 41 127 84 20 42 20 96 2 193
l-15 74 79 82 c102 107 118 158 74 246 -24 48 -65 67 -181 86 l-108 18 -53
100 c-43 82 -60 105 -91 122 -49 28 -115 29 -159 2z m177 -383 c29 -24 105
-47 156 -47 35 0 31 -9 -19 -59 -69 -67 -82 -106 -69 -199 6 -42 10 -78 8 -80
-2 -2 -30 10 -64 27 -81 41 -138 42 -214 1 -31 -16 -59 -30 -62 -30 -3 0 -3
36 1 79 4 43 4 91 0 106 -4 15 -32 54 -63 86 -37 39 -51 60 -42 63 8 2 42 9
77 14 83 14 116 40 159 125 l35 71 34 -65 c18 -37 47 -78 63 -92z"/>
<path d="M4050 4508 c-25 -17 -49 -51 -87 -123 l-51 -100 -108 -17 c-115 -18
-143 -31 -181 -88 -25 -36 -30 -91 -12 -137 5 -15 44 -63 86 -105 l76 -76 -18
-111 -18 -110 24 -48 c17 -33 36 -55 64 -70 61 -34 100 -30 211 26 l97 49 100
-49 c113 -55 152 -60 211 -26 77 43 93 111 62 269 l-13 67 69 68 c83 82 112
132 105 182 -15 104 -57 137 -202 159 l-106 16 -50 98 c-60 116 -88 140 -168
146 -46 3 -62 0 -91 -20z m179 -381 c29 -24 105 -47 155 -47 12 0 25 -2 28 -6
3 -3 -18 -29 -47 -58 -69 -68 -82 -109 -66 -201 7 -37 10 -69 8 -72 -3 -2 -33
10 -67 27 -41 21 -77 32 -105 32 -28 0 -64 -11 -105 -32 -34 -17 -64 -29 -67
-26 -3 3 0 35 6 71 16 89 4 125 -65 196 -55 56 -59 69 -18 69 50 0 126 23 154
47 16 13 44 54 62 90 l32 65 32 -65 c18 -35 47 -76 63 -90z"/>
<path d="M1398 3044 c-35 -18 -48 -43 -48 -89 0 -65 69 -110 131 -85 39 16 59
46 59 88 0 44 -14 68 -50 87 -36 19 -57 18 -92 -1z"/>
</g>
</svg>
