<svg width="32" height="33" viewBox="0 0 32 33" fill="none" xmlns="http://www.w3.org/2000/svg">
<g clip-path="url(#clip0_749_6750)">
<path d="M15.6885 1.9299C15.5822 2.03615 15.5635 2.13615 15.5635 2.57365C15.5635 3.03615 15.5822 3.11115 15.7072 3.2299C15.8885 3.39865 16.126 3.4049 16.3197 3.24865C16.4572 3.1424 16.4697 3.0799 16.4697 2.59865C16.4697 2.1674 16.451 2.0424 16.351 1.93615C16.1947 1.7674 15.8572 1.76115 15.6885 1.9299Z" fill="#151515"/>
<path d="M11.5064 3.71715C11.2877 3.99215 11.3377 4.1609 11.7377 4.56715C12.1439 4.9734 12.3689 5.02965 12.6127 4.80465C12.8627 4.5734 12.8002 4.3234 12.3939 3.91715C11.9689 3.49215 11.7252 3.4359 11.5064 3.71715Z" fill="#151515"/>
<path d="M19.6132 3.91733C19.2007 4.33608 19.1507 4.52359 19.4069 4.77359C19.6507 5.02359 19.8382 4.97984 20.2569 4.57359C20.5632 4.27983 20.6257 4.18608 20.6257 4.01108C20.6257 3.74858 20.4382 3.55483 20.1757 3.55483C20.0194 3.55483 19.9069 3.62983 19.6132 3.91733Z" fill="#151515"/>
<path d="M15.7885 4.74213C15.526 4.82338 15.4072 4.95463 14.9885 5.62963L14.6072 6.24213H14.0135C13.176 6.24213 12.876 6.46088 12.876 7.07338C12.876 7.32963 12.9197 7.40463 13.4072 8.01713L13.9447 8.67963L13.7197 9.38588C13.601 9.77963 13.501 10.1421 13.501 10.2046C13.501 10.5484 13.9572 10.9234 14.2697 10.8296C14.3447 10.8109 14.7635 10.6359 15.2072 10.4484C16.1197 10.0484 15.876 10.0296 17.1447 10.5859C17.7635 10.8546 17.8322 10.8671 18.0322 10.8046C18.3135 10.7109 18.501 10.4671 18.501 10.1984C18.501 10.0859 18.4072 9.69213 18.2885 9.32963L18.076 8.67963L18.5322 8.12963C19.2072 7.31088 19.276 7.13588 19.101 6.71088C18.9572 6.36713 18.751 6.27963 18.0385 6.24213L17.4072 6.21088L17.001 5.56088C16.6635 5.02338 16.5447 4.88588 16.3447 4.79213C16.0635 4.66713 16.0447 4.66713 15.7885 4.74213ZM16.401 6.36088C16.8322 7.06088 16.9447 7.13588 17.5697 7.17963L18.0697 7.21088L17.6822 7.67963C17.0697 8.43588 17.0447 8.51088 17.251 9.16713C17.3197 9.38588 17.376 9.58588 17.376 9.61713C17.376 9.64213 17.1197 9.55463 16.8072 9.41713C16.1135 9.11088 15.8947 9.11713 15.1572 9.44213C14.8822 9.56713 14.651 9.66088 14.6447 9.65463C14.6385 9.64838 14.6885 9.46713 14.751 9.24838C14.8947 8.80463 14.9072 8.48588 14.8072 8.28588C14.7635 8.21088 14.551 7.92963 14.3322 7.66088L13.926 7.17963H14.3385C15.0322 7.17963 15.2447 7.02963 15.726 6.21713C15.8572 5.99213 15.9885 5.81088 16.0197 5.82338C16.0447 5.82963 16.2197 6.07338 16.401 6.36088Z" fill="#151515"/>
<path d="M16.8197 12.6236C16.5822 12.6548 16.2322 12.7611 15.951 12.8986C15.526 13.0986 15.351 13.2486 14.1447 14.4486C12.901 15.6861 12.8135 15.7861 12.8135 15.9986C12.8135 16.2486 12.9385 16.3986 13.2072 16.4611C13.3635 16.5048 13.476 16.4111 14.7072 15.1986C15.601 14.3173 16.126 13.8486 16.326 13.7486C16.8135 13.5173 17.2947 13.4798 19.8322 13.5048C22.8135 13.5298 22.5072 13.4361 23.8822 14.7861L24.8572 15.7423H28.301H31.7447L31.8697 15.5798C32.0322 15.3736 32.0385 15.1736 31.8822 14.9861L31.7635 14.8361L28.4947 14.8173L25.2197 14.7986L24.3447 13.9298C23.3385 12.9361 22.9885 12.7236 22.1822 12.6173C21.626 12.5486 17.3885 12.5486 16.8197 12.6236Z" fill="#151515"/>
<path d="M8.70024 13.4984C8.10024 13.6109 7.67524 13.8734 6.74399 14.6922L6.32524 15.0547H3.31899C0.393992 15.0547 0.306492 15.0609 0.187742 15.1797C0.0314922 15.3359 0.0252422 15.6234 0.181492 15.8109L0.300242 15.9609L3.38774 15.9797C5.08149 15.9859 6.52524 15.9859 6.59399 15.9672C6.66274 15.9484 7.05649 15.6484 7.46899 15.2984C8.59399 14.3484 8.38774 14.4047 10.9065 14.3797C12.969 14.3609 13.0377 14.3547 13.1752 14.2297C13.3752 14.0422 13.3627 13.7297 13.1502 13.5609C12.9877 13.4359 12.919 13.4297 10.9752 13.4359C9.87524 13.4422 8.85024 13.4672 8.70024 13.4984Z" fill="#151515"/>
<path d="M22.4696 16.6234C22.4009 16.6672 21.8821 17.1547 21.3134 17.7172C19.9384 19.0734 19.9259 19.0797 18.4196 19.1047C17.4321 19.1234 17.2696 19.1109 16.9196 18.9984C16.7071 18.9234 16.3946 18.7547 16.2196 18.6172C15.8384 18.3109 15.6509 18.2297 15.4759 18.2797C15.4071 18.2984 14.8696 18.7922 14.2821 19.3672C13.7009 19.9422 13.1321 20.4609 13.0196 20.5172C12.7384 20.6547 12.1759 20.6484 11.8821 20.4922C11.5509 20.3297 11.2759 19.9734 11.1884 19.6109C11.0634 19.1047 11.2071 18.7547 11.8134 18.0984C12.1321 17.7484 12.3134 17.5047 12.3134 17.4109C12.3071 17.0984 11.9634 16.8922 11.6571 17.0234C11.3946 17.1297 10.6571 17.9297 10.4634 18.3109C10.0009 19.2234 10.2009 20.2797 10.9634 20.9797C11.4134 21.3859 11.8509 21.5547 12.4696 21.5547C13.2946 21.5547 13.5071 21.4359 14.6321 20.3234L15.6071 19.3672L15.9696 19.5797C16.6446 19.9922 16.8196 20.0234 18.3134 20.0234C19.6259 20.0234 19.6696 20.0172 20.0821 19.8547C20.5696 19.6547 20.9134 19.4359 21.4009 18.9859L21.7571 18.6609L22.7759 19.6672C23.6259 20.5172 23.8196 20.6797 23.9759 20.6797C24.3634 20.6797 24.5884 20.3359 24.4134 20.0047C24.3634 19.9109 23.9009 19.4172 23.3821 18.9047L22.4446 17.9672L22.7821 17.6109C23.0384 17.3422 23.1259 17.2047 23.1259 17.0672C23.1259 16.7234 22.7509 16.4672 22.4696 16.6234Z" fill="#151515"/>
<path d="M7.56299 20.4235C7.13799 20.561 6.82549 20.8173 5.86924 21.786C4.66299 23.0048 4.58799 23.1423 4.64424 23.986C4.65674 24.2485 4.69424 24.511 4.71924 24.5673C4.75674 24.6673 4.60674 24.6735 2.50049 24.6923L0.237994 24.711L0.119244 24.861C-0.037006 25.0485 -0.030756 25.2485 0.131744 25.4548L0.256744 25.6173H2.96299C5.21299 25.6173 5.71924 25.636 5.93799 25.711C6.08174 25.761 6.32549 25.8048 6.47549 25.8048H6.75049V26.086C6.75049 26.9985 7.56924 27.8485 8.51299 27.9173L8.87549 27.9423V28.2173C8.87549 29.1548 9.78174 30.0548 10.7192 30.0548H11.0005V30.336C11.0005 31.0423 11.538 31.7923 12.2317 32.0548C13.1192 32.3923 14.438 31.9548 14.438 31.3235C14.438 30.8798 13.988 30.7298 13.5817 31.036C13.263 31.2798 12.738 31.311 12.438 31.1048C11.9692 30.786 11.8067 30.2548 12.0317 29.7798C12.088 29.6673 12.5317 29.1798 13.0192 28.6985C13.713 28.0048 13.963 27.7985 14.1692 27.7423C14.663 27.5923 15.1755 27.8173 15.3755 28.261C15.588 28.7298 15.5192 29.0798 15.113 29.5485C14.963 29.7173 14.9317 29.7985 14.963 29.9548C15.0067 30.186 15.2067 30.3673 15.413 30.3673C15.5005 30.3673 15.6692 30.2735 15.7942 30.1548L16.0317 29.9423L16.413 30.2985C16.9567 30.811 17.288 30.9548 17.9067 30.9548C18.2255 30.9485 18.488 30.911 18.6255 30.8485C19.2192 30.586 19.6755 30.0673 19.8067 29.5048L19.8817 29.211H20.4567C20.9755 29.211 21.063 29.1923 21.363 29.0298C21.763 28.8048 22.0317 28.511 22.2317 28.0798L22.3817 27.7548L22.6755 27.9173C22.938 28.0673 23.038 28.086 23.563 28.086C24.088 28.086 24.1942 28.0673 24.4755 27.9173C24.8005 27.7423 25.1817 27.3735 25.3317 27.0735C25.488 26.7673 25.5755 26.261 25.5317 25.936L25.488 25.636L25.7255 25.586C26.0567 25.5298 26.4067 25.336 26.713 25.0548L26.9755 24.811L29.3692 24.7923L31.763 24.7735L31.8817 24.6235C32.038 24.436 32.0317 24.236 31.8692 24.0298L31.7442 23.8673H29.538H27.3317L27.288 23.5048C27.2192 22.911 27.0067 22.5423 26.2942 21.8298C25.763 21.2923 25.6192 21.1798 25.4692 21.1798C25.0942 21.1798 24.8505 21.5235 25.0067 21.8235C25.0442 21.8985 25.3505 22.2423 25.688 22.586C26.3505 23.2673 26.438 23.4548 26.313 23.9235C26.2317 24.236 26.0567 24.4485 25.788 24.5798C25.5442 24.6985 25.113 24.711 24.9192 24.611C24.8442 24.5735 24.1192 23.8798 23.3067 23.0798C21.8005 21.586 21.7317 21.536 21.4067 21.6548C21.263 21.711 21.113 22.036 21.163 22.1985C21.1817 22.2735 21.9442 23.0798 22.8442 23.9923C24.6505 25.811 24.7255 25.9173 24.5755 26.4235C24.363 27.1298 23.6192 27.4048 22.9942 26.9985C22.8442 26.8985 21.8505 25.9423 20.7817 24.8735C18.6692 22.7548 18.6692 22.7548 18.3317 23.0923C18.0317 23.3923 18.1005 23.4923 19.8067 25.211C21.1505 26.5548 21.3755 26.811 21.438 27.0423C21.6567 27.8798 20.763 28.5923 19.9817 28.2048C19.8692 28.1485 19.0942 27.4173 18.2505 26.5798C17.4067 25.7423 16.6692 25.0548 16.613 25.0548C16.2692 25.0548 16.0005 25.3923 16.1192 25.686C16.1505 25.7673 16.7567 26.411 17.4692 27.1173C18.1817 27.8235 18.8005 28.486 18.8505 28.5985C19.0567 29.0798 18.8442 29.661 18.3755 29.911C17.8692 30.1798 17.513 30.0735 16.8817 29.461L16.4567 29.0485L16.4255 28.6173C16.3505 27.611 15.638 26.861 14.663 26.761L14.3317 26.7235L14.2942 26.386C14.2005 25.461 13.463 24.7298 12.5317 24.636L12.2005 24.5985L12.163 24.2485C12.0567 23.3173 11.338 22.6048 10.4067 22.511L10.0755 22.4735L10.038 22.1235C9.95674 21.4298 9.51299 20.8173 8.88174 20.536C8.56924 20.3985 7.83174 20.336 7.56299 20.4235ZM8.56924 21.4298C9.00049 21.6548 9.20674 22.161 9.06299 22.636C9.00674 22.836 8.79424 23.0923 8.13174 23.761C7.66299 24.236 7.17549 24.6798 7.05049 24.7485C6.56299 24.9985 6.02549 24.8485 5.70674 24.3735C5.53799 24.1235 5.51299 23.6423 5.65049 23.3798C5.77549 23.1423 7.50049 21.4485 7.68799 21.3735C7.94424 21.2735 8.30049 21.2985 8.56924 21.4298ZM10.6942 23.5548C11.1255 23.7798 11.3317 24.2798 11.188 24.761C11.1317 24.9673 10.9255 25.2173 10.2317 25.911C9.75049 26.3985 9.26299 26.8423 9.15049 26.8985C8.47549 27.2173 7.68799 26.7235 7.68799 25.9798C7.68799 25.811 7.72549 25.5985 7.77549 25.5048C7.90049 25.2735 9.55049 23.6485 9.78174 23.5298C10.038 23.3923 10.3942 23.4048 10.6942 23.5548ZM12.7942 25.6798C13.238 25.8798 13.463 26.3923 13.313 26.886C13.2567 27.0923 13.0505 27.3423 12.3567 28.036C11.8755 28.5235 11.388 28.9673 11.2755 29.0235C10.6005 29.3423 9.81299 28.8485 9.81299 28.1048C9.81299 27.936 9.85049 27.7235 9.90049 27.6298C10.0255 27.3985 11.6755 25.7735 11.9067 25.6548C12.1567 25.5235 12.4755 25.5298 12.7942 25.6798Z" fill="#151515"/>
</g>
<rect x="0.625" y="1.61719" width="30.75" height="30.75" rx="2.625" stroke="#151515" stroke-width="1.25"/>
<defs>
<clipPath id="clip0_749_6750">
<rect y="0.992188" width="32" height="32" rx="3.25" fill="white"/>
</clipPath>
</defs>
</svg>
