<svg width="32" height="33" viewBox="0 0 32 33" fill="none" xmlns="http://www.w3.org/2000/svg">
<g clip-path="url(#clip0_519_3021)">
<path opacity="0.985" fill-rule="evenodd" clip-rule="evenodd" d="M26.5394 22.038C26.5394 22.2167 26.5394 22.3955 26.5394 22.5742C26.4052 22.807 26.1989 22.9376 25.9207 22.9661C24.9995 22.9936 24.0782 22.9936 23.1569 22.9661C22.8753 22.9078 22.6278 22.784 22.4144 22.5948C21.6169 21.6873 20.7644 20.8348 19.8569 20.0373C19.6028 19.8484 19.3416 19.6696 19.0732 19.5011C18.7175 19.2775 18.3462 19.2363 17.9594 19.3773C17.9099 19.4146 17.8755 19.4627 17.8563 19.5217C17.8031 20.4409 17.7756 21.3621 17.7738 22.2855C17.7557 22.5237 17.6389 22.6956 17.4232 22.8011C16.1322 23.09 14.8672 22.9938 13.6282 22.5123C12.0185 21.8655 10.6641 20.8687 9.56506 19.5217C7.96201 17.4995 6.697 15.272 5.77006 12.8392C5.63884 12.4393 5.52197 12.0405 5.41943 11.643C5.41943 11.423 5.41943 11.2029 5.41943 10.983C5.55099 10.7725 5.74349 10.6556 5.99693 10.6323C6.91818 10.6048 7.83944 10.6048 8.76068 10.6323C9.08162 10.6794 9.30849 10.8513 9.44131 11.148C10.0043 12.7693 10.7331 14.3093 11.6276 15.768C12.0116 16.3997 12.4859 16.9565 13.0507 17.4386C13.5021 17.6829 13.7427 17.5522 13.7726 17.0467C13.8001 15.7542 13.8001 14.4617 13.7726 13.1692C13.7404 12.8528 13.6579 12.5503 13.5251 12.2617C13.3188 11.9592 13.1126 11.6567 12.9063 11.3542C12.8245 10.9744 12.9688 10.7338 13.3394 10.6323C14.6594 10.6048 15.9794 10.6048 17.2994 10.6323C17.6184 10.698 17.7766 10.8974 17.7738 11.2305C17.7875 12.8942 17.8013 14.558 17.8151 16.2217C17.8949 16.5637 18.0943 16.6668 18.4132 16.5311C18.6912 16.3632 18.9456 16.1638 19.1763 15.933C20.3919 14.4794 21.3682 12.8707 22.1051 11.1067C22.266 10.8301 22.5066 10.672 22.8269 10.6323C23.7482 10.6048 24.6695 10.6048 25.5907 10.6323C25.9465 10.6512 26.1252 10.8368 26.1269 11.1892C26.0976 11.4766 26.022 11.7516 25.9001 12.0142C25.0243 13.6723 24.0343 15.2535 22.9301 16.758C22.8449 16.9007 22.783 17.0519 22.7444 17.2117C22.7727 17.3982 22.8483 17.5632 22.9713 17.7067C24.1664 18.8186 25.2389 20.0286 26.1888 21.3367C26.3293 21.5628 26.4462 21.7965 26.5394 22.038Z" fill="#151515"/>
</g>
<rect x="0.48" y="0.98" width="31.04" height="31.04" rx="15.52" stroke="#151515" stroke-width="0.96"/>
<defs>
<clipPath id="clip0_519_3021">
<rect width="21.12" height="21.12" fill="white" transform="translate(5.43994 6.25977)"/>
</clipPath>
</defs>
</svg>
